<svg xmlns="http://www.w3.org/2000/svg" viewBox="0 0 102 115.25">
  <defs>
    <style>
    .asdf{fill:#fff;}
    .yqreya54{fill:transparent;stroke:#fff;stroke-miterlimit:10;stroke-width:5px;}
    </style>
  </defs>
  <title>Articulos</title>
  <g id="Layer_2" data-name="Layer 2">
    <g id="Layer_1-2" data-name="Layer 1">
      <rect class="yqreya54" x="22.09" y="2.5" width="77.41" height="110.25"/>
      <path class="asdf" d="M1.56,56.54c1.5-.78,4.11-2.13,7.81-4s7.5-3.69,11.41-5.38a54.15,54.15,0,0,1,10.79-3.53q4.93-1,6.17,1.57A3.71,3.71,0,0,1,37.23,49a16,16,0,0,0-1.95,3.43l-2.47,5.48a52.06,52.06,0,0,1,5.34-2.75c1.79-.77,3.56-1.56,5.35-2.34q6.57-3.33,13.57-7a68.39,68.39,0,0,1,14.19-5.68A10.52,10.52,0,0,1,76,40a5.86,5.86,0,0,1,3.19,1.76,4.82,4.82,0,0,1,1.13,3.33,7.81,7.81,0,0,1-1.65,4.4,31.51,31.51,0,0,1-4,4.9c-1.43,1.43-2.91,3-4.42,4.69a10.41,10.41,0,0,1-1.43,1.56c-.69.66-1.41,1.41-2.16,2.26a32.71,32.71,0,0,0-2,2.55,6,6,0,0,0-1.14,2.25,8.32,8.32,0,0,0,3.6,0,36,36,0,0,0,4.32-1.09c1.44-.45,2.81-.94,4.11-1.46s2.29-.92,3-1.18l8.43-3.52c.55-.26,1.26-.65,2.16-1.17s1.81-1,2.78-1.47,1.88-.88,2.77-1.27A5.77,5.77,0,0,1,96.75,56c1.23,0,1.85.59,1.85,1.76A3.05,3.05,0,0,1,97,60.45c-1.24.66-2.55,1.27-3.91,1.86l-4.32,1.86q-2.88,1.58-5.55,2.74t-5.55,2.54q-1.65.8-5.25,2.26a38.32,38.32,0,0,1-7.19,2.16,12.4,12.4,0,0,1-6.27-.21q-2.67-.87-2.67-4.79a6.34,6.34,0,0,1,1-3.53,25.39,25.39,0,0,1,2.37-3,36.73,36.73,0,0,1,2.88-2.83c1-.92,1.95-1.77,2.77-2.55a44.09,44.09,0,0,0,4.12-4.11,15.92,15.92,0,0,0,3.7-5.88A45.28,45.28,0,0,0,61.9,49.68q-5.65,2.16-10.38,4.51-6,2.75-12.33,6.17a47,47,0,0,0-11.11,8.12,4.05,4.05,0,0,1-4.32.49,3.38,3.38,0,0,1-1.54-1.47,3.47,3.47,0,0,1-.1-2.54,6.17,6.17,0,0,1,3.08-3.14,36.48,36.48,0,0,0,2.06-3.62,11.08,11.08,0,0,1,1.44-2.44c.27-.92.55-1.87.82-2.85a19.82,19.82,0,0,0,.61-3c-1.5.39-3,.85-4.52,1.37l-3.49,1.18q-2.88,1.17-5.76,2.24c-1.92.73-3.84,1.54-5.76,2.45-1.09.53-2.09,1.05-3,1.57a17.8,17.8,0,0,1-3,1.37,3.43,3.43,0,0,1-2.36.3,3.94,3.94,0,0,1-1.75-.88A1.71,1.71,0,0,1,0,58c.08-.58.59-1.07,1.55-1.46"/>
    </g>
  </g>
</svg>