<svg xmlns="http://www.w3.org/2000/svg" viewBox="0 0 897.23 139.51"><defs><style>.5783u{fill:#ff2f49;}</style></defs><title>Elemento contacto 2</title><g id="Layer_2" data-name="Layer 2"><g id="Layer_1-2" data-name="Layer 1"><path class="5783u" d="M892.4,72.32c-5.85,2.93-13.34,6.73-22.38,11.39s-18.72,9.15-29,13.56-20.18,8.56-29.72,12.48-17.48,7.09-23.85,9.54q-5.13,2.2-18.35,6.6T741.25,134a212.06,212.06,0,0,1-27.53,5.12q-12.79,1.47-18.69-2.19-8.81-8.07-3.3-14.67a22.44,22.44,0,0,1,13.56-8.06l33-3.69a77,77,0,0,0,17.24-7c4.64-2.68,9.89-6,15.77-9.9q3.69-2.94,12.84-12.12c6.12-6.1,12.12-12.73,18-19.8a116.32,116.32,0,0,0,13.94-20.54q5.16-9.9,0-14.31c-2.93-2.47-7.7-2.94-14.3-1.47A114.33,114.33,0,0,0,781.6,32c-6.83,2.94-13.2,6-19.08,9.18a112.32,112.32,0,0,0-11.73,7Q729.52,61.33,716.3,76q-6.62,7.32-14.31,1.84c-5.12-3.67-6.73-8.7-4.77-15.06A20.12,20.12,0,0,1,702.36,54l7-7a25.57,25.57,0,0,0,5.49-9.15c1.95-3.43,2.45-6,1.47-7.71a7,7,0,0,0-5.13-3.3c-6.86-1-15.41-.49-25.67,1.47a285.47,285.47,0,0,0-32,8.07,326.11,326.11,0,0,0-32.64,12.09q-16.11,7-27.89,12.84a31.45,31.45,0,0,0-8.07,4,60.94,60.94,0,0,1-10.64,5.49,28.4,28.4,0,0,1-10.62,2.21,7.6,7.6,0,0,1-7.35-4.4c-1.94-2.94-1.83-5.63.36-8.07a26.34,26.34,0,0,1,9.18-6.24c3.92-1.73,7.84-3.3,11.75-4.77s6.86-2.71,8.8-3.66q12.48-5.88,25-11.37t25.68-11.4q8.81-3.67,19.07-8.79a164.08,164.08,0,0,1,21.29-8.81A118.32,118.32,0,0,1,699.8.42a42.63,42.63,0,0,1,20.91,2.19q12.48,5.15,14.67,14.31a37.89,37.89,0,0,1-.73,19.46l19.8-11.76q12.49-7.34,26.06-15A71.25,71.25,0,0,1,808.74.42a38.28,38.28,0,0,1,23.49,5.87c6.85,4.38,10.54,11.25,11,20.55,0,4.87-1.93,11.11-5.88,18.69a161.31,161.31,0,0,1-15,23.49,175.16,175.16,0,0,1-20.19,22.37q-11,10.29-20.54,15.42a143.24,143.24,0,0,0,16.52-6.6q11.37-5.13,25.68-12.48t30.08-15q15.78-7.73,29-14.31a8.76,8.76,0,0,1,7.34-1.1A9.82,9.82,0,0,1,895.7,61a8.16,8.16,0,0,1,1.46,5.87c-.25,2.2-1.83,4-4.76,5.5"/><path class="5783u" d="M570.28,72.32q-8,4.4-27.86,15.05t-40.74,20.19q-20.91,9.51-38.51,13.2t-22-5.88q-2.94-7.34,1.83-14.31a61.63,61.63,0,0,0,7-12.84l8.82-20.55a179.89,179.89,0,0,1-19.08,10.29c-6.37,2.91-12.71,5.86-19.08,8.79q-23.46,12.49-48.43,26.43A237.92,237.92,0,0,1,321.54,134c-6.34,1.46-12,1.59-16.85.36a21,21,0,0,1-11.4-6.61q-4-4.74-4-12.47t5.87-16.5a119.81,119.81,0,0,1,14.32-18.36q7.68-8.07,15.77-17.6a42.32,42.32,0,0,1,5.13-5.86c2.46-2.47,5-5.25,7.71-8.45s5.13-6.37,7.32-9.54a23.32,23.32,0,0,0,4.05-8.43q-5.15-1.47-12.84,0a117.26,117.26,0,0,0-15.42,4Q313.49,37.1,306.51,40t-10.64,4.41l-30.09,13.2c-2,1-4.51,2.45-7.71,4.41s-6.46,3.78-9.9,5.49-6.72,3.3-9.89,4.77-5.75,2.22-7.71,2.22c-4.41,0-6.6-2.22-6.6-6.61a11.53,11.53,0,0,1,5.85-10.28c4.41-2.45,9.08-4.77,14-7l15.41-7c6.86-3.92,13.46-7.32,19.8-10.26s13-6.14,19.83-9.54q5.88-2.92,18.71-8.45A131.53,131.53,0,0,1,343.2,7.37c8.56-1.69,16-1.46,22.38.76s9.53,8.17,9.53,18a24.59,24.59,0,0,1-3.65,13.23A94,94,0,0,1,363,50.69a140.18,140.18,0,0,1-10.27,10.62c-3.65,3.43-7,6.62-9.89,9.54q-4.41,3.68-14.7,15.41t-13.19,22a153.37,153.37,0,0,0,40-10.26Q375.11,89.94,392,81.13,413.27,70.86,436,58a169.42,169.42,0,0,0,39.62-30.45,14.49,14.49,0,0,1,7.71-3.3A13.86,13.86,0,0,1,491,25.73a12.08,12.08,0,0,1,5.52,5.49c1.21,2.46,1.34,5.63.36,9.54q-2.21,6.62-11,11.75a138.65,138.65,0,0,0-7.35,13.57c-2.42,5.16-4.15,8.2-5.13,9.17Q472,80.41,470.5,85.9a83.12,83.12,0,0,0-2.19,11.37c5.38-1.47,10.74-3.19,16.13-5.13s9.53-3.43,12.48-4.41c6.86-2.94,13.68-5.74,20.54-8.43s13.69-5.75,20.55-9.17c3.92-2,7.45-3.92,10.65-5.88a62.21,62.21,0,0,1,10.61-5.14,11.76,11.76,0,0,1,8.46-1.1,13.68,13.68,0,0,1,6.21,3.3,6.42,6.42,0,0,1,1.86,5.51q-.37,3.3-5.52,5.5"/><path class="5783u" d="M162.34,108.28c-2,1-6.48,2.94-13.59,5.88a119.92,119.92,0,0,1-20.91,6.6c-6.83,1.47-12.71,1.57-17.6.36s-6.6-5.75-5.14-13.56a36.46,36.46,0,0,1,6.24-13.23,49.38,49.38,0,0,0,7-13.19,168.27,168.27,0,0,0,8.43-23.49q4.06-14-2.55-22.74c-8.32-1-17.48,0-27.51,2.94s-19.2,5.85-27.53,8.79A141.57,141.57,0,0,0,55.2,54c-6.83,3.89-14.06,7.7-21.63,11.37a122.71,122.71,0,0,1-20.94,8.07C6.3,75.12,2.37,74.54.9,71.59c-2-3.43-.72-7.08,3.66-11A71.08,71.08,0,0,1,21.09,49.94q9.9-4.75,20.18-8.79t13.2-5.52q16.14-8.07,32.64-15.78A131.23,131.23,0,0,1,121.24,9.24c10.26-1.48,17.38.72,21.27,6.6s5.88,13.3,5.88,22.37a119.25,119.25,0,0,1-4,29.34q-4,15.78-8.46,29,16.89-6.61,33-12.12a292.75,292.75,0,0,0,31.55-12.84c8.82-3.91,17.6-8.32,26.42-13.2,5.39-1.46,9.64-.13,12.84,4s1.83,7.71-4.05,10.64Z"/></g></g></svg>