<svg xmlns="http://www.w3.org/2000/svg" viewBox="0 0 767 119.26"><title>Elemento contacto</title><g id="Layer_2" data-name="Layer 2"><g id="Layer_1-2" data-name="Layer 1"><path d="M4.13,57.44c5-2.51,11.4-5.75,19.13-9.74s16-7.83,24.77-11.6,17.26-7.31,25.41-10.66,14.94-6.06,20.38-8.16c2.94-1.25,8.16-3.12,15.7-5.64s15.44-4.8,23.82-6.9A182,182,0,0,1,156.87.36q10.95-1.26,16,1.87c5,4.61,6,8.77,2.82,12.54a19.21,19.21,0,0,1-11.59,6.9l-28.23,3.15a65.86,65.86,0,0,0-14.74,5.95q-6,3.45-13.49,8.47-3.14,2.5-11,10.35c-5.22,5.22-10.35,10.89-15.35,16.93A99.08,99.08,0,0,0,69.37,84.08q-4.41,8.46,0,12.23c2.51,2.12,6.58,2.51,12.23,1.26a98.2,98.2,0,0,0,17.25-5.64c5.84-2.51,11.28-5.11,16.31-7.85a94.55,94.55,0,0,0,10-6q18.19-11.3,29.49-23.84,5.66-6.26,12.23-1.57T171,65.59a17.35,17.35,0,0,1-4.39,7.52c-2.09,2.09-4.08,4.07-6,6a21.72,21.72,0,0,0-4.69,7.82c-1.68,2.93-2.1,5.14-1.26,6.59a6,6,0,0,0,4.38,2.82c5.87.86,13.18.42,21.95-1.25a244.53,244.53,0,0,0,27.31-6.9,277.7,277.7,0,0,0,27.9-10.34q13.78-5.94,23.84-11a26.65,26.65,0,0,0,6.9-3.46,51.64,51.64,0,0,1,9.1-4.7,24.43,24.43,0,0,1,9.08-1.89,6.49,6.49,0,0,1,6.28,3.77c1.66,2.51,1.57,4.81-.31,6.89a22.64,22.64,0,0,1-7.84,5.34c-3.35,1.48-6.7,2.82-10.05,4.08s-5.86,2.31-7.52,3.12Q255,85,244.36,89.72t-22,9.75q-7.54,3.14-16.3,7.51a140.35,140.35,0,0,1-18.21,7.54,101.52,101.52,0,0,1-19.13,4.38A36.38,36.38,0,0,1,150.9,117c-7.12-2.94-11.28-7-12.54-12.23A32.44,32.44,0,0,1,139,88.16l-16.92,10q-10.69,6.27-22.28,12.85a61.06,61.06,0,0,1-24.13,7.84,32.7,32.7,0,0,1-20.08-5q-8.79-5.62-9.41-17.57c0-4.16,1.65-9.49,5-16A139.21,139.21,0,0,1,64,60.26,148.68,148.68,0,0,1,81.29,41.13,86.29,86.29,0,0,1,98.85,28a122.23,122.23,0,0,0-14.13,5.64Q75,38,62.78,44.26T37.06,57.11q-13.49,6.6-24.78,12.23A7.45,7.45,0,0,1,6,70.28a8.37,8.37,0,0,1-4.69-3.12,7,7,0,0,1-1.25-5c.21-1.87,1.56-3.44,4.07-4.69"/><path d="M279.49,57.44q6.87-3.77,23.82-12.87t34.82-17.26A159.34,159.34,0,0,1,371.05,16q15.07-3.14,18.82,5,2.52,6.28-1.56,12.24a52.21,52.21,0,0,0-5.95,11l-7.54,17.57A156,156,0,0,1,391.13,53c5.45-2.49,10.87-5,16.31-7.51q20.06-10.68,41.4-22.59A203.23,203.23,0,0,1,492.13,4.74a30.62,30.62,0,0,1,14.41-.3,17.88,17.88,0,0,1,9.74,5.64q3.44,4.06,3.43,10.67t-5,14.1a102.53,102.53,0,0,1-12.23,15.69q-6.57,6.9-13.48,15.05a36.81,36.81,0,0,1-4.39,5c-2.1,2.11-4.3,4.49-6.59,7.22s-4.38,5.45-6.26,8.16a20,20,0,0,0-3.46,7.21q4.39,1.25,11,0a100.9,100.9,0,0,0,13.18-3.47c4.38-1.45,8.57-3,12.54-4.69s7-2.93,9.1-3.77L539.79,70c1.68-.84,3.86-2.09,6.6-3.77s5.52-3.24,8.46-4.7,5.75-2.82,8.46-4.07a16.85,16.85,0,0,1,6.59-1.9c3.77,0,5.64,1.9,5.64,5.64a9.86,9.86,0,0,1-5,8.8c-3.77,2.09-7.76,4.07-11.93,6l-13.17,6q-8.81,5-16.93,8.77t-16.95,8.15q-5,2.5-16,7.23a112.29,112.29,0,0,1-21.94,6.9c-7.32,1.45-13.71,1.26-19.13-.64s-8.16-7-8.16-15.36a20.94,20.94,0,0,1,3.13-11.3,78.88,78.88,0,0,1,7.23-9.72,120.52,120.52,0,0,1,8.77-9.08c3.13-2.94,6-5.67,8.46-8.16q3.78-3.13,12.57-13.17T497.77,26.7a130.83,130.83,0,0,0-34.18,8.77q-17.25,6.9-31.69,14.43-18.18,8.79-37.62,19.77a144.94,144.94,0,0,0-33.87,26,12.32,12.32,0,0,1-6.58,2.82,11.83,11.83,0,0,1-6.6-1.26,10.24,10.24,0,0,1-4.71-4.69c-1-2.1-1.15-4.81-.31-8.16,1.25-3.76,4.39-7.12,9.41-10a120.2,120.2,0,0,0,6.28-11.6c2.07-4.41,3.55-7,4.38-7.84q1.26-4.41,2.51-9.11a71.72,71.72,0,0,0,1.88-9.72c-4.61,1.26-9.19,2.73-13.79,4.39s-8.16,2.93-10.67,3.77c-5.86,2.51-11.7,4.91-17.57,7.2s-11.7,4.92-17.56,7.85c-3.35,1.68-6.37,3.35-9.1,5a53.12,53.12,0,0,1-9.08,4.38,10,10,0,0,1-7.23,1,11.66,11.66,0,0,1-5.31-2.82,5.54,5.54,0,0,1-1.59-4.72c.22-1.87,1.79-3.44,4.72-4.69"/><path d="M628.23,26.7c1.67-.84,5.53-2.52,11.61-5A102.18,102.18,0,0,1,657.71,16c5.84-1.26,10.87-1.34,15-.31s5.65,4.92,4.39,11.59a31.05,31.05,0,0,1-5.33,11.31,42.45,42.45,0,0,0-6,11.28A143.52,143.52,0,0,0,658.66,70q-3.46,11.92,2.18,19.43c7.12.86,14.95,0,23.52-2.51s16.42-5,23.53-7.52a119,119,0,0,0,11.92-6.28c5.84-3.32,12-6.58,18.5-9.71a104.17,104.17,0,0,1,17.89-6.9c5.42-1.45,8.77-1,10,1.56,1.67,2.94.62,6.06-3.13,9.41A60.3,60.3,0,0,1,749,76.56q-8.46,4.06-17.25,7.52c-5.84,2.32-9.61,3.88-11.29,4.72q-13.78,6.9-27.9,13.49a112,112,0,0,1-29.17,9.07c-8.77,1.26-14.86-.62-18.19-5.64s-5-11.37-5-19.13a101.54,101.54,0,0,1,3.44-25.08c2.29-9,4.72-17.25,7.23-24.79q-14.45,5.66-28.23,10.36a251.85,251.85,0,0,0-27,11c-7.54,3.35-15.05,7.12-22.59,11.29-4.6,1.25-8.23.11-11-3.44s-1.56-6.59,3.46-9.1Z"/></g></g></svg>