<svg xmlns="http://www.w3.org/2000/svg" viewBox="0 0 322.38 68.87"><defs><style>.cls-1{fill:#fff;}</style></defs><title>Copywriting</title><g id="Layer_2" data-name="Layer 2"><g id="Layer_1-2" data-name="Layer 1"><path class="cls-1" d="M8.5,52.3A108.56,108.56,0,0,1,41.12,29c9-4.15,21.16-8.83,31-4.72,11.79,4.92,4.44,21,6.72,30.61C81.48,66,92.12,73,102.61,66.11c17.68-11.69,27-34.65,47.33-42.78,11.95-4.78,23.24.46,34.58,4.41a116.86,116.86,0,0,0,41.57,6.11C258.35,32.94,289.25,21.51,319,10,325,7.71,322.37-2,316.36.36c-27.25,10.53-55.51,21.28-84.93,23.23-14.43,1-28.86-.36-42.62-4.94-12.17-4-23.68-9.38-36.76-6.42C130.68,17.06,118,38.31,103.19,52.54c-3.64,3.5-9.63,10-13.37,3.36-3-5.32-1.28-11.72-1-17.45.62-11.35-4.31-21.07-15.68-24.35-12-3.46-24.65.72-35.58,5.58A116.18,116.18,0,0,0,1.43,45.23C-3,49.86,4,56.94,8.5,52.3Z"/></g></g></svg>