<svg xmlns="http://www.w3.org/2000/svg" viewBox="0 0 94.15 87.7"><defs><style>.cls-1{fill:#fff;}</style></defs><title>Creativa</title><g id="Layer_2" data-name="Layer 2"><g id="Layer_1-2" data-name="Layer 1"><path class="cls-1" d="M77,51.18A88.72,88.72,0,0,1,65.8,59.55q-5.94,3.75-12.18,6.87Q50.37,68,47,69.48c-2.25,1-4.5,1.85-6.75,2.69l-4.75,5.37c-1.49,1.58-3.1,3.13-4.8,4.62a18.09,18.09,0,0,1-5.56,3.38,16.08,16.08,0,0,1-2.19.5,9.91,9.91,0,0,1-2.75.12A4.05,4.05,0,0,1,18,85.35c-.58-.46-.7-1.23-.37-2.31a1.86,1.86,0,0,1,1.12-1.25,2.45,2.45,0,0,1,1.88,0A3.84,3.84,0,0,0,23,82a10.2,10.2,0,0,0,2.5-.87,14.16,14.16,0,0,0,2.37-1.51c.75-.58,1.38-1.08,1.88-1.49A21,21,0,0,0,32.25,76l2.25-2.25a32,32,0,0,1-3.63.81c-1.24.21-2.54.4-3.87.56a41.89,41.89,0,0,1-6.62.26,29.46,29.46,0,0,1-6.87-1.07,21.22,21.22,0,0,1-6.19-2.81,13.21,13.21,0,0,1-4.43-5,12,12,0,0,1-1.38-6.07A23.15,23.15,0,0,1,2.7,54.11a31.22,31.22,0,0,1,2.75-6.06,57.32,57.32,0,0,1,3.43-5.24A78.71,78.71,0,0,1,28.94,23.69,85.75,85.75,0,0,1,54,12.19q5.5-1.37,10.87-2.25a12.27,12.27,0,0,0-.75-2.68,6.15,6.15,0,0,0-1.63-2.19,2,2,0,0,1-.87-1.75A1.92,1.92,0,0,1,62.48,2a2.93,2.93,0,0,1,1.82-.44A2.66,2.66,0,0,1,66.23,2.7a10.91,10.91,0,0,1,1.69,3.24,20.79,20.79,0,0,1,.82,3.63c2.33-.17,4.68-.27,7.05-.32s4.77,0,7.19.19c.58,0,1.44,0,2.56.06a24.14,24.14,0,0,1,3.37.38,7.46,7.46,0,0,1,2.81,1.06,1.93,1.93,0,0,1,.88,2.13,2,2,0,0,1-.94,1.5,2.3,2.3,0,0,1-1.81.25,33.89,33.89,0,0,0-4-1c-1.33-.25-2.7-.46-4.12-.63a46.12,46.12,0,0,0-6.37-.56c-2.17,0-4.33,0-6.5.19a36.2,36.2,0,0,1-1.56,8.49Q66,25.57,64.74,28.93A125.94,125.94,0,0,1,59.05,42q-3.18,6.32-6.81,12.44-1.87,3.36-4,6.62c-1.42,2.16-2.87,4.33-4.37,6.49a98.61,98.61,0,0,0,12-5.49A78.85,78.85,0,0,0,66.23,55.3c.75-.58,1.48-1.19,2.19-1.81s1.4-1.27,2.06-1.94a13.4,13.4,0,0,0,1.94-2.12,6.68,6.68,0,0,1,2.06-1.88,2,2,0,0,1,1.63-.25,2.55,2.55,0,0,1,1.25.94,2.17,2.17,0,0,1,.43,1.5A2.06,2.06,0,0,1,77,51.18M38.62,69.3q5.25-6.75,9.18-12.88T55,44.05q3.24-6.49,6-13.49a62.37,62.37,0,0,0,3.75-14.37,12.7,12.7,0,0,0,.18-1.37c0-.5.07-1.09.07-1.75a79.63,79.63,0,0,0-15.5,3.56A68.9,68.9,0,0,0,35,23.44a88,88,0,0,0-10.06,7.25,70,70,0,0,0-8.81,8.74c-1.17,1.41-2.35,3-3.56,4.62a45.41,45.41,0,0,0-3.25,5.19A33.54,33.54,0,0,0,7,54.8,18.27,18.27,0,0,0,6,60.55a7.91,7.91,0,0,0,1.37,4.68,11.85,11.85,0,0,0,3.5,3.25,17.66,17.66,0,0,0,4.62,2,31.09,31.09,0,0,0,4.75.94,53.26,53.26,0,0,0,9.31-.32,62.05,62.05,0,0,0,9.06-1.8"/><path class="cls-1" d="M77,51.18A88.72,88.72,0,0,1,65.8,59.55q-5.94,3.75-12.18,6.87Q50.37,68,47,69.48c-2.25,1-4.5,1.85-6.75,2.69l-4.75,5.37c-1.49,1.58-3.1,3.13-4.8,4.62a18.09,18.09,0,0,1-5.56,3.38,16.08,16.08,0,0,1-2.19.5,9.91,9.91,0,0,1-2.75.12A4.05,4.05,0,0,1,18,85.35c-.58-.46-.7-1.23-.37-2.31a1.86,1.86,0,0,1,1.12-1.25,2.45,2.45,0,0,1,1.88,0A3.84,3.84,0,0,0,23,82a10.2,10.2,0,0,0,2.5-.87,14.16,14.16,0,0,0,2.37-1.51c.75-.58,1.38-1.08,1.88-1.49A21,21,0,0,0,32.25,76l2.25-2.25a32,32,0,0,1-3.63.81c-1.24.21-2.54.4-3.87.56a41.89,41.89,0,0,1-6.62.26,29.46,29.46,0,0,1-6.87-1.07,21.22,21.22,0,0,1-6.19-2.81,13.21,13.21,0,0,1-4.43-5,12,12,0,0,1-1.38-6.07A23.15,23.15,0,0,1,2.7,54.11a31.22,31.22,0,0,1,2.75-6.06,57.32,57.32,0,0,1,3.43-5.24A78.71,78.71,0,0,1,28.94,23.69,85.75,85.75,0,0,1,54,12.19q5.5-1.37,10.87-2.25a12.27,12.27,0,0,0-.75-2.68,6.15,6.15,0,0,0-1.63-2.19,2,2,0,0,1-.87-1.75A1.92,1.92,0,0,1,62.48,2a2.93,2.93,0,0,1,1.82-.44A2.66,2.66,0,0,1,66.23,2.7a10.91,10.91,0,0,1,1.69,3.24,20.79,20.79,0,0,1,.82,3.63c2.33-.17,4.68-.27,7.05-.32s4.77,0,7.19.19c.58,0,1.44,0,2.56.06a24.14,24.14,0,0,1,3.37.38,7.46,7.46,0,0,1,2.81,1.06,1.93,1.93,0,0,1,.88,2.13,2,2,0,0,1-.94,1.5,2.3,2.3,0,0,1-1.81.25,33.89,33.89,0,0,0-4-1c-1.33-.25-2.7-.46-4.12-.63a46.12,46.12,0,0,0-6.37-.56c-2.17,0-4.33,0-6.5.19a36.2,36.2,0,0,1-1.56,8.49Q66,25.57,64.74,28.93A125.94,125.94,0,0,1,59.05,42q-3.18,6.32-6.81,12.44-1.87,3.36-4,6.62c-1.42,2.16-2.87,4.33-4.37,6.49a98.61,98.61,0,0,0,12-5.49A78.85,78.85,0,0,0,66.23,55.3c.75-.58,1.48-1.19,2.19-1.81s1.4-1.27,2.06-1.94a13.4,13.4,0,0,0,1.94-2.12,6.68,6.68,0,0,1,2.06-1.88,2,2,0,0,1,1.63-.25,2.55,2.55,0,0,1,1.25.94,2.17,2.17,0,0,1,.43,1.5A2.06,2.06,0,0,1,77,51.18M38.62,69.3q5.25-6.75,9.18-12.88T55,44.05q3.24-6.49,6-13.49a62.37,62.37,0,0,0,3.75-14.37,12.7,12.7,0,0,0,.18-1.37c0-.5.07-1.09.07-1.75a79.63,79.63,0,0,0-15.5,3.56A68.9,68.9,0,0,0,35,23.44a88,88,0,0,0-10.06,7.25,70,70,0,0,0-8.81,8.74c-1.17,1.41-2.35,3-3.56,4.62a45.41,45.41,0,0,0-3.25,5.19A33.54,33.54,0,0,0,7,54.8,18.27,18.27,0,0,0,6,60.55a7.91,7.91,0,0,0,1.37,4.68,11.85,11.85,0,0,0,3.5,3.25,17.66,17.66,0,0,0,4.62,2,31.09,31.09,0,0,0,4.75.94,53.26,53.26,0,0,0,9.31-.32,62.05,62.05,0,0,0,9.06-1.8"/><path class="cls-1" d="M21.08,87.7c-.35,0-.69,0-1,0a5.54,5.54,0,0,1-3-1.13c-.63-.49-1.58-1.66-.89-3.93a3.37,3.37,0,0,1,2-2.19,3.94,3.94,0,0,1,3,0,2.45,2.45,0,0,0,1.54.18,8.49,8.49,0,0,0,2.13-.75A12,12,0,0,0,27,78.48c.74-.57,1.35-1.06,1.84-1.47.33-.24.63-.47.92-.7-.8.12-1.63.23-2.52.34a43.85,43.85,0,0,1-6.87.26A30.77,30.77,0,0,1,13.1,75.8a23.08,23.08,0,0,1-6.61-3,14.61,14.61,0,0,1-4.93-5.55A13.42,13.42,0,0,1,0,60.43a24.78,24.78,0,0,1,1.26-6.79,34,34,0,0,1,2.88-6.35,58.1,58.1,0,0,1,3.53-5.37A80.45,80.45,0,0,1,28.11,22.44a87.69,87.69,0,0,1,25.48-11.7c3.2-.79,6.36-1.46,9.46-2-.1-.31-.21-.61-.32-.89a4.66,4.66,0,0,0-1.24-1.65,3.38,3.38,0,0,1-1.36-3.08A3.4,3.4,0,0,1,61.65.7,4.37,4.37,0,0,1,64.38,0a4.09,4.09,0,0,1,3,1.77,12.71,12.71,0,0,1,1.93,3.7A21.3,21.3,0,0,1,70,8c1.92-.11,3.86-.19,5.78-.23,2.4,0,4.84,0,7.26.19.59,0,1.45,0,2.56.07a23.75,23.75,0,0,1,3.6.4,9,9,0,0,1,3.36,1.28,3.42,3.42,0,0,1,1.53,3.64,3.39,3.39,0,0,1-1.63,2.51,3.77,3.77,0,0,1-3,.43,34.92,34.92,0,0,0-3.91-1c-1.26-.24-2.62-.44-4-.61a44.91,44.91,0,0,0-6.22-.55c-1.65,0-3.36,0-5.08.1a38,38,0,0,1-1.52,7.53c-.89,2.88-1.76,5.47-2.59,7.7a129.1,129.1,0,0,1-5.75,13.21c-2.16,4.26-4.46,8.48-6.86,12.52-1.24,2.23-2.6,4.49-4,6.68l-1.58,2.39c2.55-1.12,5-2.3,7.23-3.53a77.5,77.5,0,0,0,10.17-6.62c.7-.54,1.41-1.13,2.11-1.75s1.33-1.21,2-1.87a13,13,0,0,0,1.8-2,8.22,8.22,0,0,1,2.53-2.29,3.4,3.4,0,0,1,2.83-.36,4,4,0,0,1,2,1.48,3.71,3.71,0,0,1,.72,2.5A3.53,3.53,0,0,1,78,52.31,91.38,91.38,0,0,1,66.6,60.82c-4,2.51-8.13,4.85-12.31,6.94-2.24,1.12-4.5,2.16-6.71,3.1s-4.3,1.78-6.46,2.58l-4.5,5.09q-2.37,2.5-4.94,4.76a19.41,19.41,0,0,1-6,3.65,16.56,16.56,0,0,1-2.45.58A12.91,12.91,0,0,1,21.08,87.7Zm-1.4-4.6a.82.82,0,0,0-.34.07c-.2.09-.24.17-.27.28a1.55,1.55,0,0,0-.11.76,2.81,2.81,0,0,0,1.37.46,9,9,0,0,0,2.35-.11,15.65,15.65,0,0,0,2-.44A16.7,16.7,0,0,0,29.7,81c1.64-1.45,3.23-3,4.71-4.53l3.82-4.33L33.31,77.1a22.59,22.59,0,0,1-2.68,2.28c-.44.37-1.07.87-1.84,1.47a15.81,15.81,0,0,1-2.62,1.66,11.49,11.49,0,0,1-2.88,1A5.3,5.3,0,0,1,20,83.16.9.9,0,0,0,19.68,83.1Zm14.6-61c-1.52.89-3,1.83-4.51,2.82A77.73,77.73,0,0,0,10.09,43.69a59.79,59.79,0,0,0-3.35,5.12,30.32,30.32,0,0,0-2.62,5.77,21.66,21.66,0,0,0-1.11,6,10.28,10.28,0,0,0,1.21,5.3A11.77,11.77,0,0,0,8.15,70.3a20.08,20.08,0,0,0,5.76,2.61,28,28,0,0,0,6.52,1,41.39,41.39,0,0,0,6.39-.24c1.39-.18,2.63-.36,3.8-.56a30.6,30.6,0,0,0,3.47-.77l5.56-1.59,0,0,.11,0c1.41-.52,2.83-1.07,4.24-1.64L39.85,70.7l2.78-4c.73-1,1.45-2.11,2.19-3.2-1.56,2.2-3.24,4.44-5,6.73l-.31.39-.48.13a63,63,0,0,1-9.28,1.85,54.07,54.07,0,0,1-9.56.33,33.82,33.82,0,0,1-5.07-1,19.22,19.22,0,0,1-5-2.17A13.52,13.52,0,0,1,6.16,66.1a9.38,9.38,0,0,1-1.65-5.55,20,20,0,0,1,1-6.22A37.29,37.29,0,0,1,8,48.53a48.16,48.16,0,0,1,3.36-5.35c1.27-1.75,2.45-3.29,3.62-4.7a71.87,71.87,0,0,1,9-8.95,91.66,91.66,0,0,1,10.23-7.37ZM63.42,14.8A79.12,79.12,0,0,0,50,18.05a68.18,68.18,0,0,0-14.18,6.66,89.11,89.11,0,0,0-9.89,7.13,68.35,68.35,0,0,0-8.62,8.56c-1.11,1.34-2.29,2.87-3.5,4.54a44.39,44.39,0,0,0-3.14,5,33.52,33.52,0,0,0-2.27,5.31,17.12,17.12,0,0,0-.86,5.29,6.41,6.41,0,0,0,1.1,3.82,10.56,10.56,0,0,0,3.06,2.84A16.29,16.29,0,0,0,15.9,69a29.1,29.1,0,0,0,4.52.9,52.41,52.41,0,0,0,9-.31A61.71,61.71,0,0,0,37.74,68c3.33-4.3,6.29-8.46,8.8-12.37s5-8.12,7.12-12.25C55.8,39.07,57.8,34.57,59.59,30a61,61,0,0,0,3.66-14C63.33,15.57,63.38,15.19,63.42,14.8ZM75.59,48.72a.93.93,0,0,0-.36.13,5.28,5.28,0,0,0-1.61,1.48,15.37,15.37,0,0,1-2.15,2.35c-.63.64-1.35,1.31-2.06,1.94s-1.51,1.28-2.26,1.86c-1.61,1.24-3.27,2.43-5,3.55,1-.57,1.9-1.16,2.84-1.75a87.17,87.17,0,0,0,11-8.23l0,0c.27-.23.28-.36.29-.4a.71.71,0,0,0-.15-.5,1,1,0,0,0-.52-.4Zm-9.1-37.36v1.71c0,.7,0,1.34-.07,1.88s-.12,1.06-.21,1.54a61.87,61.87,0,0,1-2.42,10.64c.67-1.87,1.36-4,2.07-6.26a34.45,34.45,0,0,0,1.5-8.14l.08-1.31,1.31-.1c2.25-.17,4.48-.23,6.64-.19a47.88,47.88,0,0,1,6.58.58c1.41.17,2.84.38,4.16.63a34.38,34.38,0,0,1,4.17,1.05.71.71,0,0,0,.58-.1.45.45,0,0,0,.23-.41c.08-.45,0-.55-.22-.69a5.94,5.94,0,0,0-2.25-.83A22,22,0,0,0,85.48,11c-1.09,0-1.93-.06-2.5-.06h-.11c-2.35-.16-4.72-.23-7.05-.19s-4.67.15-7,.31l-1.4.1-.19-1.39A20.05,20.05,0,0,0,66.5,6.4,9.4,9.4,0,0,0,65,3.6a1.28,1.28,0,0,0-.82-.6,1.45,1.45,0,0,0-.9.2.41.41,0,0,0-.21.33,3.47,3.47,0,0,0,.38.42,7.58,7.58,0,0,1,2,2.73,13.56,13.56,0,0,1,.85,3l.24,1.48-1.48.24c-1.19.2-2.4.41-3.62.65,1.11-.19,2.21-.35,3.32-.49Z"/></g></g></svg>