<svg xmlns="http://www.w3.org/2000/svg" viewBox="0 0 235.18 103.39"><defs><style>.cls-1,.cls-2{fill:#fff;}.cls-2{font-size:70.74px;font-family:Poppins-Bold, Poppins;font-weight:700;}</style></defs><title>Logo</title><g id="Layer_2" data-name="Layer 2"><g id="Layer_1-2" data-name="Layer 1"><path class="cls-1" d="M231.82,81.73c-1.43.72-3.25,1.64-5.46,2.78s-4.56,2.23-7.06,3.3-4.92,2.09-7.25,3-4.26,1.73-5.81,2.33c-.83.36-2.32.89-4.47,1.61s-4.41,1.37-6.79,2A51.62,51.62,0,0,1,188.26,98c-2.08.24-3.6.07-4.55-.53q-2.15-2-.81-3.57a5.48,5.48,0,0,1,3.31-2l8-.9a18.5,18.5,0,0,0,4.2-1.7c1.13-.65,2.41-1.46,3.85-2.41q.9-.72,3.13-3c1.49-1.49,2.95-3.11,4.38-4.83a28.48,28.48,0,0,0,3.4-5c.83-1.61.83-2.77,0-3.49s-1.88-.71-3.49-.35a26.87,26.87,0,0,0-4.92,1.61q-2.51,1.06-4.65,2.23a28.09,28.09,0,0,0-2.86,1.7,38.64,38.64,0,0,0-8.41,6.8,2.37,2.37,0,0,1-3.49.45,3,3,0,0,1-1.16-3.68,5,5,0,0,1,1.25-2.14l1.71-1.7a6.2,6.2,0,0,0,1.33-2.23c.48-.84.6-1.47.36-1.88a1.73,1.73,0,0,0-1.25-.81,19.73,19.73,0,0,0-6.26.36,68.28,68.28,0,0,0-7.78,2,79.56,79.56,0,0,0-8,3q-3.93,1.69-6.8,3.13a7.59,7.59,0,0,0-2,1,14.23,14.23,0,0,1-2.6,1.34,6.87,6.87,0,0,1-2.59.54,1.85,1.85,0,0,1-1.79-1.07,1.47,1.47,0,0,1,.09-2,6.35,6.35,0,0,1,2.24-1.52c1-.42,1.91-.8,2.86-1.16s1.67-.66,2.14-.89c2-1,4.06-1.88,6.09-2.78l6.26-2.77q2.14-.9,4.65-2.15a40.76,40.76,0,0,1,5.19-2.15,29.28,29.28,0,0,1,5.45-1.25,10.5,10.5,0,0,1,5.1.54c2,.83,3.21,2,3.57,3.49a9.26,9.26,0,0,1-.17,4.74l4.82-2.87q3-1.78,6.35-3.66a17.41,17.41,0,0,1,6.89-2.24,9.27,9.27,0,0,1,5.72,1.44,5.88,5.88,0,0,1,2.68,5,10.52,10.52,0,0,1-1.43,4.56,39.46,39.46,0,0,1-3.66,5.73,43.17,43.17,0,0,1-4.92,5.45,25.09,25.09,0,0,1-5,3.76,34.83,34.83,0,0,0,4-1.61c1.85-.84,3.93-1.85,6.26-3s4.76-2.41,7.33-3.67,4.92-2.42,7.06-3.48a2.11,2.11,0,0,1,1.79-.27,2.34,2.34,0,0,1,1.34.89,2,2,0,0,1,.36,1.43,1.81,1.81,0,0,1-1.16,1.34"/><path class="cls-1" d="M153.3,81.73c-1.31.72-3.58,1.94-6.79,3.67s-6.53,3.37-9.93,4.92a45.36,45.36,0,0,1-9.39,3.22c-2.86.59-4.65.12-5.37-1.44a3.55,3.55,0,0,1,.45-3.48,15.38,15.38,0,0,0,1.7-3.13l2.15-5A47.12,47.12,0,0,1,121.47,83l-4.65,2.14q-5.73,3-11.81,6.44a58.32,58.32,0,0,1-12.34,5.19,8.84,8.84,0,0,1-4.11.08,5.11,5.11,0,0,1-2.78-1.61,4.55,4.55,0,0,1-1-3,7.38,7.38,0,0,1,1.43-4,28.93,28.93,0,0,1,3.49-4.47C91,82.38,92.25,81,93.57,79.4A10.41,10.41,0,0,1,94.82,78c.6-.6,1.22-1.28,1.88-2.06s1.25-1.56,1.78-2.33a5.74,5.74,0,0,0,1-2,6.83,6.83,0,0,0-3.13,0,28.51,28.51,0,0,0-3.76,1c-1.25.42-2.44.86-3.58,1.34s-2,.84-2.59,1.08l-7.33,3.21c-.48.24-1.1.6-1.88,1.08s-1.58.92-2.42,1.34-1.64.8-2.41,1.16a4.79,4.79,0,0,1-1.88.54,1.43,1.43,0,0,1-1.61-1.61,2.83,2.83,0,0,1,1.43-2.51c1.07-.59,2.21-1.16,3.4-1.69l3.76-1.71q2.5-1.43,4.82-2.5c1.56-.71,3.16-1.49,4.84-2.32,1-.48,2.47-1.16,4.56-2.06a31.23,31.23,0,0,1,6.26-2,10.38,10.38,0,0,1,5.45.18q2.32.81,2.33,4.38a6,6,0,0,1-.9,3.23,21.82,21.82,0,0,1-2.06,2.77,35.7,35.7,0,0,1-2.5,2.59c-.89.83-1.7,1.61-2.41,2.32a39.53,39.53,0,0,0-3.58,3.76,14.52,14.52,0,0,0-3.22,5.37A37.48,37.48,0,0,0,100.81,88a98.51,98.51,0,0,0,9-4.11q5.19-2.5,10.73-5.64a41,41,0,0,0,9.66-7.42,3.39,3.39,0,0,1,1.87-.8,3.29,3.29,0,0,1,1.88.35,3,3,0,0,1,1.35,1.34,3.4,3.4,0,0,1,.09,2.33,5.52,5.52,0,0,1-2.69,2.86,36.47,36.47,0,0,0-1.79,3.31,10.4,10.4,0,0,1-1.25,2.24c-.24.83-.47,1.7-.71,2.59a20.56,20.56,0,0,0-.54,2.77c1.31-.36,2.62-.78,3.93-1.25s2.33-.83,3-1.07c1.67-.72,3.33-1.4,5-2.06s3.34-1.4,5-2.23c1-.48,1.82-1,2.6-1.44a14.82,14.82,0,0,1,2.59-1.25,2.86,2.86,0,0,1,2.06-.27,3.29,3.29,0,0,1,1.51.81,1.57,1.57,0,0,1,.46,1.34c-.07.54-.51,1-1.35,1.34"/><path class="cls-1" d="M53.86,90.5c-.48.23-1.58.71-3.31,1.43a29.09,29.09,0,0,1-5.1,1.61,9.48,9.48,0,0,1-4.29.08c-1.19-.29-1.61-1.4-1.25-3.3a8.89,8.89,0,0,1,1.52-3.22,12.39,12.39,0,0,0,1.7-3.22,41.07,41.07,0,0,0,2-5.73q1-3.39-.62-5.54a16.8,16.8,0,0,0-6.71.72q-3.66,1.07-6.71,2.14a37.16,37.16,0,0,0-3.39,1.79c-1.67.95-3.43,1.88-5.28,2.77a29.29,29.29,0,0,1-5.1,2c-1.55.41-2.5.27-2.86-.45s-.18-1.72.89-2.68a17.5,17.5,0,0,1,4-2.59c1.61-.78,3.25-1.49,4.92-2.15s2.74-1.1,3.22-1.34c2.62-1.31,5.28-2.6,8-3.85a32,32,0,0,1,8.32-2.59c2.5-.36,4.24.18,5.19,1.61a9.58,9.58,0,0,1,1.43,5.46,29.29,29.29,0,0,1-1,7.15c-.65,2.56-1.35,4.92-2.06,7.07,2.74-1.08,5.43-2.06,8-3a70.36,70.36,0,0,0,7.69-3.13c2.15-1,4.29-2,6.44-3.21a2.71,2.71,0,0,1,3.13,1c.77,1,.45,1.88-1,2.59Z"/><text class="cls-2" transform="translate(0 60.52)">Dani</text></g></g></svg>