<svg xmlns="http://www.w3.org/2000/svg" viewBox="0 0 122.65 49.99"><defs><style>.cls-1{fill:#fff;}</style></defs><title>Master</title><g id="Layer_2" data-name="Layer 2"><g id="Layer_1-2" data-name="Layer 1"><path class="cls-1" d="M120.92,25.91q-3.15,1.59-8,4.09c-3.24,1.66-6.71,3.28-10.38,4.86s-7.24,3.06-10.66,4.47-6.26,2.54-8.54,3.42q-1.84.78-6.58,2.36T66.76,48a76.26,76.26,0,0,1-9.87,1.84q-4.59.52-6.7-.78c-2.1-1.93-2.5-3.68-1.18-5.26a8,8,0,0,1,4.86-2.89L65.7,39.59a27.34,27.34,0,0,0,6.18-2.5c1.67-1,3.55-2.15,5.65-3.55q1.32-1,4.61-4.34t6.43-7.09a41.6,41.6,0,0,0,5-7.37q1.84-3.54,0-5.12c-1-.89-2.76-1-5.12-.53a40.73,40.73,0,0,0-7.24,2.37c-2.44,1-4.73,2.14-6.83,3.28a39.77,39.77,0,0,0-4.21,2.5,57,57,0,0,0-12.36,10c-1.58,1.74-3.28,2-5.12.65A4.42,4.42,0,0,1,51,22.5a7.15,7.15,0,0,1,1.84-3.15l2.5-2.51a9.19,9.19,0,0,0,2-3.28c.7-1.22.87-2.15.52-2.76A2.48,2.48,0,0,0,56,9.62a28.47,28.47,0,0,0-9.2.52A102.82,102.82,0,0,0,35.33,13a117,117,0,0,0-11.7,4.33q-5.77,2.49-10,4.6a11.57,11.57,0,0,0-2.9,1.45,21.17,21.17,0,0,1-3.81,2,10.31,10.31,0,0,1-3.8.79A2.71,2.71,0,0,1,.49,24.6a2.17,2.17,0,0,1,.13-2.89,9.52,9.52,0,0,1,3.29-2.24c1.4-.61,2.81-1.18,4.21-1.7s2.46-1,3.15-1.31c3-1.41,6-2.77,8.94-4.08L29.42,8.3Q32.57,7,36.25,5.15A58.6,58.6,0,0,1,43.88,2a42.15,42.15,0,0,1,8-1.84,15.35,15.35,0,0,1,7.49.78c3,1.23,4.73,2.94,5.26,5.13a13.55,13.55,0,0,1-.26,7l7.09-4.22Q76,6.2,80.82,3.44A25.53,25.53,0,0,1,90.94.15a13.64,13.64,0,0,1,8.42,2.11,8.7,8.7,0,0,1,3.94,7.36,15.4,15.4,0,0,1-2.11,6.7,57.59,57.59,0,0,1-5.38,8.41,62.66,62.66,0,0,1-7.24,8,36.16,36.16,0,0,1-7.36,5.53,52.47,52.47,0,0,0,5.92-2.37c2.72-1.23,5.79-2.71,9.2-4.47s7-3.55,10.79-5.39,7.23-3.55,10.38-5.13a3.16,3.16,0,0,1,2.63-.39,3.53,3.53,0,0,1,2,1.31,2.92,2.92,0,0,1,.53,2.11,2.65,2.65,0,0,1-1.71,2"/></g></g></svg>