<svg xmlns="http://www.w3.org/2000/svg" viewBox="0 0 251.71 116.74"><defs><style>.hirtjh5{opacity:0.34;}.thj575m,.hkapdkg{fill:#363636;}.hkapdkg{fill-rule:evenodd;}</style></defs><title>El Molino</title><g id="Layer_2" data-name="Layer 2"><g id="Layer_1-2" data-name="Layer 1"><g class="hirtjh5"><path class="thj575m" d="M161.77,110.14v4.25a4.23,4.23,0,0,0,.14,1.4.82.82,0,0,0,.77.46l.25,0a.14.14,0,0,1,.15.16c0,.11-.07.16-.22.16h-.16l-.37,0-.87,0h-.21a8.88,8.88,0,0,0-1.09.09l-.35,0c-.12,0-.18,0-.19-.14a.16.16,0,0,1,.14-.16.79.79,0,0,0,.58-.41,3.24,3.24,0,0,0,.14-1.14v-4.32a1.47,1.47,0,0,0-.24-.94,1.17,1.17,0,0,0-.82-.36q-.21,0-.21-.18c0-.11.08-.17.24-.17l.26,0c.42,0,.89,0,1.43,0l.64,0,.63,0,.57,0a3.35,3.35,0,0,1,2.32.67A1.93,1.93,0,0,1,166,111a2,2,0,0,1-.69,1.56,2.33,2.33,0,0,1-1.67.64,3.44,3.44,0,0,1-1-.11c-.27-.08-.4-.17-.4-.27s0-.15.14-.15l.09,0a2.06,2.06,0,0,0,.59.09,1.51,1.51,0,0,0,1.11-.44,1.54,1.54,0,0,0,.43-1.12,2,2,0,0,0-.5-1.39,1.7,1.7,0,0,0-1.3-.54,1.31,1.31,0,0,0-.82.19.93.93,0,0,0-.21.71m-7.37-1a2.08,2.08,0,0,0-1.76.84,3.76,3.76,0,0,0-.63,2.32,4.79,4.79,0,0,0,.79,2.86,2.45,2.45,0,0,0,2.07,1.1,2.18,2.18,0,0,0,1.83-.91,3.94,3.94,0,0,0,.69-2.43,4.85,4.85,0,0,0-.32-1.72,3.43,3.43,0,0,0-.85-1.33A2.58,2.58,0,0,0,154.4,109.16Zm.4-.42a3.91,3.91,0,0,1,2.82,1,3.5,3.5,0,0,1,1.08,2.67,4.42,4.42,0,0,1-1.11,3,3.75,3.75,0,0,1-3,1.22,4,4,0,0,1-2.9-1.06,3.77,3.77,0,0,1-1.09-2.84,4.51,4.51,0,0,1,.27-1.52,3.9,3.9,0,0,1,.75-1.26,3.72,3.72,0,0,1,1.38-.94A4.62,4.62,0,0,1,154.8,108.74Zm-7.73,4H144.4c-.26,0-.43,0-.49.1a1,1,0,0,0-.09.55v1.4a1.94,1.94,0,0,0,.26,1.15,1,1,0,0,0,.84.35c.13,0,.2,0,.2.15s-.1.17-.3.17l-.4,0a8.76,8.76,0,0,0-1.21-.08,7.54,7.54,0,0,0-.93.07l-.43,0c-.12,0-.18-.06-.18-.19s.05-.12.14-.13a.72.72,0,0,0,.55-.35,1.78,1.78,0,0,0,.17-.87v-5a.74.74,0,0,0-.22-.6,1.84,1.84,0,0,0-.83-.32.16.16,0,0,1-.15-.16c0-.12.06-.17.18-.17a2.56,2.56,0,0,1,.37,0,6.54,6.54,0,0,0,1.06.08c.14,0,.44,0,.89-.08a5.67,5.67,0,0,1,.61,0c.14,0,.2.05.2.15s0,.14-.16.16a.74.74,0,0,0-.66.83v1.44a1.42,1.42,0,0,0,.08.67c0,.06.23.1.54.1h2.63c.22,0,.36,0,.41-.14a2.14,2.14,0,0,0,.08-.76v-1.21a.83.83,0,0,0-.79-.86l-.26,0c-.1,0-.16-.07-.16-.16s.06-.17.18-.17a2.32,2.32,0,0,1,.37,0,6.77,6.77,0,0,0,1.07.08c.15,0,.44,0,.89-.08a5.67,5.67,0,0,1,.61,0c.14,0,.2.05.2.15s0,.14-.16.16a.74.74,0,0,0-.66.83v4.82a2,2,0,0,0,.25,1.15,1,1,0,0,0,.83.35q.21,0,.21.15c0,.11-.1.17-.29.17l-.39,0a9.11,9.11,0,0,0-1.22-.08,7.54,7.54,0,0,0-.93.07l-.43,0c-.12,0-.18-.06-.18-.19s.05-.12.14-.13a.72.72,0,0,0,.55-.35,1.81,1.81,0,0,0,.16-.88v-1.54a2,2,0,0,0-.07-.67C147.44,112.76,147.3,112.73,147.07,112.73Zm-20.75-2.55v1.22a1.84,1.84,0,0,0,.07.66c0,.09.17.14.37.14h.89a1,1,0,0,0,.87-.61l.13-.28a.17.17,0,0,1,.16-.1q.12,0,.12.15s0,.11,0,.25a2.09,2.09,0,0,0,0,.24c0,.12,0,.4.05.84,0,.29,0,.54,0,.76v.28a.31.31,0,0,1,0,.11.19.19,0,0,1-.09,0c-.1,0-.15-.07-.18-.22a1.18,1.18,0,0,0-.33-.72.77.77,0,0,0-.36-.18,6.68,6.68,0,0,0-.79,0h-.38a.67.67,0,0,0-.37.07.52.52,0,0,0-.13.34c0,.18,0,.48,0,.88v.5a3.83,3.83,0,0,0,.12,1.14.54.54,0,0,0,.62.43c1.52,0,2.52-.46,3-1.38a.14.14,0,0,1,.06-.08.15.15,0,0,1,.11,0,.16.16,0,0,1,0,.12,2.18,2.18,0,0,1-.29,1.07,1.51,1.51,0,0,1-.62.63,2.11,2.11,0,0,1-1,.19c-.24,0-.51,0-.8,0l-.65-.07c-.24,0-.56,0-1,0s-.69,0-1.25,0a2.33,2.33,0,0,1-.33,0c-.09,0-.14,0-.14-.12s0-.12.12-.16a1,1,0,0,0,.44-.26,1.26,1.26,0,0,0,.18-.49,4.24,4.24,0,0,0,.06-.81v-4.44a1.33,1.33,0,0,0-.2-.85,1.46,1.46,0,0,0-.85-.32c-.11,0-.16-.07-.16-.16s.07-.13.19-.13h.44l.57,0,2.12,0c1.23,0,2,0,2.26,0h.08c.11,0,.16.06.16.18s0,.24,0,.46,0,.56,0,.7-.08.43-.22.44-.11-.08-.11-.25a.84.84,0,0,0-.41-.8,2.57,2.57,0,0,0-1.31-.25H127l-.38,0c-.19.06-.29.25-.29.57Zm-6.76,0v1.22a1.84,1.84,0,0,0,.07.66c.05.09.18.14.37.14h.9a1,1,0,0,0,.86-.61l.13-.28a.17.17,0,0,1,.16-.1q.12,0,.12.15s0,.11,0,.25a2.09,2.09,0,0,0,0,.24c0,.12,0,.4,0,.84,0,.29,0,.54,0,.76v.28a.27.27,0,0,1,0,.11.19.19,0,0,1-.09,0c-.09,0-.15-.07-.17-.22a1.25,1.25,0,0,0-.34-.72.77.77,0,0,0-.36-.18,6.68,6.68,0,0,0-.79,0h-.38a.67.67,0,0,0-.37.07.57.57,0,0,0-.13.34c0,.18,0,.48,0,.88v.5a3.83,3.83,0,0,0,.12,1.14.71.71,0,0,0,.22.34.76.76,0,0,0,.41.09c1.51,0,2.51-.46,3-1.38a.14.14,0,0,1,.06-.08.15.15,0,0,1,.11,0,.17.17,0,0,1,.05.12,2.19,2.19,0,0,1-.3,1.07,1.51,1.51,0,0,1-.62.63,2.11,2.11,0,0,1-1,.19c-.24,0-.51,0-.8,0l-.65-.07c-.24,0-.56,0-1,0s-.69,0-1.25,0a2.33,2.33,0,0,1-.33,0c-.09,0-.14,0-.14-.12s0-.12.12-.16a1,1,0,0,0,.44-.26,1.26,1.26,0,0,0,.18-.49,4.24,4.24,0,0,0,.06-.81v-4.44a1.33,1.33,0,0,0-.2-.85,1.46,1.46,0,0,0-.85-.32.15.15,0,0,1-.15-.16c0-.09.06-.13.18-.13h.44l.57,0,2.12,0c1.23,0,2,0,2.26,0h.08c.11,0,.17.06.17.18s0,.24,0,.46,0,.56,0,.7-.08.43-.22.44-.11-.08-.11-.25a.86.86,0,0,0-.4-.8,2.61,2.61,0,0,0-1.32-.25h-.69l-.38,0c-.19.06-.29.25-.29.57Zm-6.19,1.51a.78.78,0,0,0,.08.42.37.37,0,0,0,.32.11h.82a1,1,0,0,0,.63-.18,1.93,1.93,0,0,0,.42-.7c0-.09.08-.13.12-.13s.17,0,.17.14a1,1,0,0,1,0,.15.91.91,0,0,0,0,.17,7.63,7.63,0,0,0,0,.77l.08,1c0,.11,0,.19,0,.24s-.05.13-.15.13-.11,0-.13-.15a1.27,1.27,0,0,0-.38-.79,1.5,1.5,0,0,0-.92-.21,2.3,2.3,0,0,0-1,.11c-.08.07-.13.34-.13.81v1.11a2.07,2.07,0,0,0,.29,1.22,1.16,1.16,0,0,0,.85.33q.18,0,.18.15c0,.11,0,.16-.12.16l-.33,0c-.13,0-.4,0-.81,0h-.62a7.06,7.06,0,0,0-.72,0,3.93,3.93,0,0,1-.55,0c-.12,0-.18,0-.18-.14s0-.13.16-.17a.69.69,0,0,0,.45-.38,2.67,2.67,0,0,0,.11-1v-4.61a1.25,1.25,0,0,0-.24-.92,1.36,1.36,0,0,0-.82-.27.14.14,0,0,1-.14-.14c0-.11.06-.16.19-.16l.29,0c.22,0,.46,0,.71,0l1,0h1.47c.5,0,1,0,1.55-.07l.43,0c.09,0,.14.1.15.29s0,.37,0,.41l.06.43a1.86,1.86,0,0,1,0,.22c0,.31-.07.46-.21.46s-.11,0-.11-.16v-.18a.6.6,0,0,0,0-.2c-.16-.49-.65-.73-1.49-.73h-1a.63.63,0,0,0-.44.12.54.54,0,0,0-.13.42Zm-6.19,0a.78.78,0,0,0,.08.42.37.37,0,0,0,.32.11h.83A.94.94,0,0,0,109,112a1.68,1.68,0,0,0,.42-.7c0-.09.08-.13.13-.13s.16,0,.16.14a1,1,0,0,1,0,.15v.17c0,.22,0,.47,0,.77l.09,1c0,.11,0,.19,0,.24s0,.13-.15.13-.12,0-.14-.15a1.27,1.27,0,0,0-.37-.79,1.54,1.54,0,0,0-.92-.21,2.23,2.23,0,0,0-1,.11c-.09.07-.13.34-.13.81v1.11a2.07,2.07,0,0,0,.29,1.22,1.18,1.18,0,0,0,.85.33q.18,0,.18.15c0,.11,0,.16-.12.16l-.32,0-.81,0h-.62c-.28,0-.52,0-.73,0a4,4,0,0,1-.54,0c-.12,0-.19,0-.19-.14s.06-.13.16-.17a.69.69,0,0,0,.45-.38,2.61,2.61,0,0,0,.12-1v-4.61a1.2,1.2,0,0,0-.25-.92,1.32,1.32,0,0,0-.81-.27c-.1,0-.15-.06-.15-.14s.07-.16.19-.16l.29,0c.23,0,.46,0,.72,0l1,0h1.48c.5,0,1,0,1.54-.07l.43,0c.09,0,.14.1.15.29s0,.37,0,.41l.05.43c0,.09,0,.16,0,.22,0,.31-.07.46-.21.46s-.12,0-.12-.16v-.18a.6.6,0,0,0,0-.2c-.15-.49-.65-.73-1.48-.73h-1a.64.64,0,0,0-.45.12.54.54,0,0,0-.13.42Zm-7.37-2.53a2.06,2.06,0,0,0-1.75.84,3.7,3.7,0,0,0-.64,2.32,4.79,4.79,0,0,0,.8,2.86,2.44,2.44,0,0,0,2.06,1.1,2.18,2.18,0,0,0,1.84-.91,3.94,3.94,0,0,0,.69-2.43,4.85,4.85,0,0,0-.32-1.72,3.67,3.67,0,0,0-.85-1.33A2.62,2.62,0,0,0,99.81,109.16Zm.4-.42a4,4,0,0,1,2.83,1,3.5,3.5,0,0,1,1.08,2.67,4.47,4.47,0,0,1-1.11,3,3.78,3.78,0,0,1-3,1.22,4,4,0,0,1-2.9-1.06A3.8,3.8,0,0,1,96,112.8a4.53,4.53,0,0,1,.28-1.52,3.72,3.72,0,0,1,.74-1.26,3.89,3.89,0,0,1,1.38-.94A4.66,4.66,0,0,1,100.21,108.74Zm37.05-2.06a3.5,3.5,0,0,1,1.3.26l.47.19a1.41,1.41,0,0,0,.46.13.53.53,0,0,0,.2-.05l.27-.13a.27.27,0,0,1,.12,0c.09,0,.15.08.15.23l0,.58a2,2,0,0,0,0,.25l.08.7.07.65a.93.93,0,0,1,0,.14c0,.2-.06.31-.18.31s-.14-.09-.18-.27a3,3,0,0,0-1-1.71,2.64,2.64,0,0,0-1.75-.72,1.6,1.6,0,0,0-1.12.43,1.32,1.32,0,0,0-.47,1,1.26,1.26,0,0,0,.42.94,7.31,7.31,0,0,0,1.68.82,5.82,5.82,0,0,1,2.22,1.35,2.9,2.9,0,0,1,.65,1.92,3,3,0,0,1-.89,2.15,2.85,2.85,0,0,1-2.1.91,6,6,0,0,1-1.55-.33,6.23,6.23,0,0,0-.73-.21.84.84,0,0,1-.38-.13,1.08,1.08,0,0,1-.09-.36,5.32,5.32,0,0,0-.21-1,6.33,6.33,0,0,1-.27-1.24c0-.22.07-.34.22-.34s.12.06.14.17a4.58,4.58,0,0,0,1.21,2,2.59,2.59,0,0,0,1.79.82,1.76,1.76,0,0,0,1.28-.54,1.7,1.7,0,0,0,.57-1.25,1.39,1.39,0,0,0-.3-.92,2.8,2.8,0,0,0-1-.68l-1.08-.48a6.15,6.15,0,0,1-2.07-1.29,2.28,2.28,0,0,1-.55-1.61,2.71,2.71,0,0,1,.76-2A2.56,2.56,0,0,1,137.26,106.68Zm-45.94,0a4.54,4.54,0,0,1,2.3.57l.46.27a.51.51,0,0,0,.26.09.25.25,0,0,0,.21-.11l.15-.22s.06-.06.13-.06.22.15.22.46v1.16l.06.54.07.32a2.19,2.19,0,0,1,0,.42c0,.18-.06.27-.2.27s-.12-.06-.15-.17a3.29,3.29,0,0,0-.39-.83,5.45,5.45,0,0,0-.64-.88,3.67,3.67,0,0,0-2.74-1.33,2.6,2.6,0,0,0-2.17,1.1,4.55,4.55,0,0,0-.84,2.85,4.93,4.93,0,0,0,1.37,3.66,3.09,3.09,0,0,0,2.23,1,3.84,3.84,0,0,0,1.52-.35,3.62,3.62,0,0,0,1.26-.85l.46-.5a.32.32,0,0,1,.19-.12c.09,0,.13,0,.13.16a1.87,1.87,0,0,1-.56.92,4.61,4.61,0,0,1-3.61,1.66,4.47,4.47,0,0,1-3.37-1.33,4.74,4.74,0,0,1-1.3-3.47,5.54,5.54,0,0,1,.49-2.28,4.86,4.86,0,0,1,1.3-1.83A4.67,4.67,0,0,1,91.32,106.68Z"/><path class="hkapdkg" d="M79.8,112v2.81l1.09,1.92H72.12l1.09-1.92V112h-.72l.72-.7h1.47v-.4A2.23,2.23,0,0,1,73.16,109h-.22v-.67h3.4V108h-.29v-.38h.29v-.46h.33v.46h1.74l.43-1h2.5v-.36a.65.65,0,1,1,.34,0v.36h.5v.39h-.5v.32h-.34v-.32H79.09l-.43,1h-2v.38h3.4V109h-.22a2.24,2.24,0,0,1-1.51,1.91v.4H79.8l.72.7Z"/><path class="hkapdkg" d="M172.55,112v2.81l-1.09,1.92h8.77l-1.09-1.92V112h.72l-.72-.7h-1.46v-.4a2.24,2.24,0,0,0,1.51-1.91h.22v-.67H176V108h.28v-.38H176v-.46h-.34v.46h-1.74l-.43-1H171v-.36a.66.66,0,0,0-.16-1.29.65.65,0,0,0-.66.66.66.66,0,0,0,.49.63v.36h-.5v.39h.5v.32H171v-.32h2.26l.43,1h2v.38h-3.4V109h.23a2.24,2.24,0,0,0,1.51,1.91v.4h-1.47l-.72.7Z"/><path class="thj575m" d="M43.31,103.66l-.09-.32,1.2-1.2L45,102Zm.33,1.12h0l-.08-.3,2.94-2.94.56-.16Zm2-.59-.56.16L48.52,101l.56-.16Zm2.05-.59-.56.16,3.39-3.39.56-.17ZM49.8,103l-.57.16,3.39-3.39.52-.15v0Zm2.05-.59-.57.16,2.09-2.09.09.32Zm1.89-.55-.41.12.35-.35Zm5.92-16.06-.11-.28.05-.06.15.26Zm.45,1L60,86.55l.15-.15.15.25Zm.5,1-.14-.27.25-.25.16.24Zm.53.93L61,88.47l.34-.34.17.23Zm.57.89-.16-.25.43-.43.18.22Zm.61.85v0l-.16-.22.51-.51.2.21Zm.65.81,0,0-.15-.18.59-.6.21.2Zm.68.78,0,0-.15-.16.68-.68.21.19Zm.72.74-.06-.06-.14-.14.76-.76.23.18Zm.76.71L65,93.44l-.12-.12.84-.84.23.17Zm.79.67-.11-.09L65.7,94l.92-.92.24.15Zm.83.63-.14-.09-.09-.08,1-1,.25.15Zm.86.6-.17-.11-.07,0,1.09-1.09.26.14Zm.91.56-.23-.13,0,0,1.18-1.18.27.13Zm.94.52-.27-.14,1.27-1.27.29.12Zm1,.47-.27-.12,1.36-1.36.3.1Zm1,.44-.29-.12,1.46-1.46.32.09Zm1.08.39-.31-.11,1.57-1.57.33.07Zm1.12.33L73.36,98,75,96.35l.35.05Zm1.18.29-.33-.08,1.82-1.82.37,0Zm1.24.21H76l-.22,0,2-2h.39Zm1.32.15-.38,0,2.14-2.14.43,0Zm1.39.06h-.39l2.34-2.35.45,0Zm1.49,0h-.42l2.59-2.59.51-.1Zm1.62-.16-.46.06,2.93-2.94L85,95.6Zm1.77-.31-.27.06-.24,0L86.62,95l.71-.31Zm2-.54-.22.07L85.1,98l4.47-4.48c.39-.24.77-.48,1.15-.75ZM97,89l-.25.4-.59.83,0,0-4.35,4.36-.72.51-.57.37Zm1.63-3.1-.32.73L88.1,96.84l-.68.31,0,0Zm.81-2.28-.07.27-.11.32-3.11,3.12c.26-.38.51-.76.75-1.15Zm.48-1.93,0,.2-.07.31L98,84c.11-.23.21-.47.31-.71Zm.26-1.72-.06.46L99,81.58c.06-.19.12-.38.17-.58Zm.1-1.57v.41l-.74.75c0-.17.07-.34.1-.51Zm0-1.47v.4l-.46.46c0-.15,0-.3,0-.46Zm-.09-1.37,0,.38-.25.24c0-.14,0-.28,0-.42ZM100,74.3l0,.19,0,.16-.08.07c0-.13,0-.26,0-.39Zm38.11,10.52v-.24l0,.19Zm0,1.45v-.4l.26-.26V86Zm0,1.45v-.4l.27-.27v.4Zm0,1.45v-.4l.27-.27v.4Zm0,1.46v-.4l.27-.28v.4Zm0,1.45v-.4l.28-.27v.4Zm0,1.45v-.4l.27-.27v.4Zm-29.45,1.69-.08-.32.79-.79h.4Zm.33,1.13h0l-.08-.29,2-2h.4Zm1.48,0h-.41l2.25-2.25h.41Zm1.47,0h-.41l2.25-2.25h.41Zm1.47,0h-.41l2.26-2.25h.4Zm1.47,0h-.4l2.25-2.26h.4Zm1.47,0H116L118.25,94h.41Zm1.48,0h-.41L119.72,94h.41Zm1.47,0h-.41L121.19,94h.41Zm1.47,0h-.4L122.67,94h.4Zm1.47,0h-.4L124.14,94h.4Zm1.48,0h-.41L125.61,94H126Zm1.47,0h-.41L127.08,94h.41Zm1.47,0h-.41L128.56,94h.4Zm1.47,0h-.4L130,94h.4Zm1.47,0h-.4l2.25-2.25h.41Zm1.48,0h-.41L133,93.93h.41Zm1.47,0h-.41l2.25-2.25h.41Zm1.47,0h-.4l2.25-2.25h.4Zm1.47,0h-.4l2.25-2.25h.4Zm1.48,0h-.41l1.83-1.83v.4Zm1.43,0h-.37l.37-.37ZM120.08,82v.4l-.36.36h-.41Zm0-1.44v.39l-1,1v-.4Zm0-1.44v.39l-1,1v-.4Zm0-1.44V78l-1,1v-.4Zm0-1.44v.39l-1,1v-.4Zm0-1.45v.4l-1,1v-.4Zm0-1.44v.4l-1,1v-.4Zm0-1.44v.4l-1,1v-.4Zm0-1.44v.4l-1,1v-.4Zm0-1.44v.39l-1,1V70Zm0-1.44V68l-.94,1v-.41Zm0-1.44v.39l-.93.93V67Zm0-1.44v.39l-.92.92v-.4Zm0-1.45v.4l-.9.91v-.4Zm0-1.44v.4l-.89.9v-.4Zm0-1.44v.4l-.89.89v-.4Zm0-1.44v.4l-.88.88v-.4Zm0-1.44v.4l-.87.86v-.4Zm0-1.44v.4l-.86.85v-.4Zm-.22-1.24.1.3-.74.74v-.4Zm-.39-1.08.11.3-.37.37V54Zm38.39,0,0-.29,0,.22Zm-.08,1.55,0-.43.36-.36.08.31h0Zm-.08,1.54,0-.42.46-.47,0,.43Zm-.09,1.55,0-.43.46-.46,0,.43Zm-.08,1.54,0-.42.46-.46,0,.42Zm-.08,1.55,0-.43.46-.46,0,.43ZM157,63l0-.43.46-.46,0,.43Zm-.08,1.54,0-.42.46-.46,0,.42Zm-.08,1.55,0-.43.46-.46,0,.43Zm-.09,1.55,0-.43.46-.46,0,.42Zm-.08,1.54,0-.42.46-.46,0,.42Zm-.08,1.55,0-.43.46-.46,0,.42Zm-.09,1.54,0-.42.46-.47,0,.43Zm-.08,1.55,0-.42.46-.47,0,.43Zm-.08,1.55,0-.43.46-.46,0,.42Zm-.09,1.54,0-.42.46-.47,0,.43Zm-.08,1.55,0-.43.47-.46,0,.43ZM156.06,80l0-.43.46-.46,0,.42ZM156,81.54l0-.42.46-.47,0,.43Zm-.09,1.55,0-.43.47-.46,0,.42Zm-.08,1.55,0-.43.46-.46,0,.42Zm-.08,1.54,0-.42.46-.47,0,.43Zm-.09,1.54,0-.42.47-.46,0,.42Zm-.08,1.55,0-.42.46-.47,0,.43Zm-.09,1.55,0-.43.46-.46,0,.43Zm-.08,1.54,0-.42.46-.46,0,.42Zm-.08,1.55,0-.43.46-.46,0,.43Zm-10.67.44,0-.15h.19ZM145,95.5l-.08-.31.92-.93.38,0Zm.53.94-.28,0,0-.08,2-2,.38,0Zm1.39.07-.38,0,2.07-2.08.39,0Zm1.39.08-.39,0L150,94.49l.38,0Zm1.38.07-.38,0,2.08-2.08.38,0Zm1.39.07h-.38l2.07-2.08h.38Zm1.38.08-.38,0,2.08-2.08.38,0Zm1.39.07-.38,0,2.29-2.29,0,.43Zm1.39.08-.39,0,.83-.82,0,.42Zm42.59,5.22-.05.46-.63.63-.19-.21Zm4.59-43.68,0-.46.11-.11.09.31Zm-.2,1.65.06-.45.61-.62,0,.17,0,.22Zm-.2,1.66.06-.45.69-.69-.06.46Zm-.19,1.66.05-.45.69-.69-.06.45Zm-.2,1.66,0-.45.69-.69,0,.46Zm-.2,1.67.06-.46.68-.69-.05.46Zm-.2,1.66.06-.46.69-.69-.06.46ZM201,70.12l0-.46.69-.69,0,.46Zm-.2,1.66.05-.46.69-.69-.05.46Zm-.2,1.66.06-.46.69-.69-.06.46Zm-.19,1.66,0-.46.69-.69-.06.46Zm-.2,1.66.05-.46.69-.69-.05.46Zm-.2,1.66.06-.46.68-.69-.05.46Zm-.2,1.66.06-.46.69-.69-.06.46Zm-.19,1.66,0-.46.69-.69-.06.46Zm-.2,1.66.05-.46.69-.69-.05.46Zm-.2,1.66.06-.46.68-.68,0,.45ZM199,86.72l0-.46.69-.68-.06.45Zm-.2,1.66.05-.46.69-.68-.05.45Zm-.2,1.66,0-.46.69-.68-.05.45Zm-.2,1.66.06-.46.68-.68,0,.45Zm-.2,1.66.06-.45.69-.69-.06.45ZM198,95l.05-.45.69-.69-.05.45Zm-.2,1.66.06-.45.68-.69,0,.46Zm-.2,1.67.06-.46.69-.69-.06.46Zm-.19,1.66.05-.46.69-.69-.05.46Zm-.2,1.66,0-.46.69-.69,0,.46Zm-.45,0,.19.22-.57.56-.19-.21Zm-.68-.78.19.22-.57.56-.19-.21Zm-.68-.78.18.22-.56.56-.19-.21Zm-.69-.78.19.22-.56.56-.19-.21Zm-.68-.78.19.22-.57.56-.19-.21Zm-.68-.77.19.21-.57.56-.19-.21ZM192.7,97l.18.21-.56.57-.19-.22Zm-.69-.79.19.22-.57.57-.18-.22Zm-.68-.77.19.21-.57.57-.19-.22Zm-.68-.78.19.21-.57.57-.19-.22Zm-.68-.78.18.21-.56.57-.19-.22Zm-.69-.78.19.21-.56.57-.19-.22Zm-.68-.78.19.21-.57.57-.19-.22Zm-.68-.78.18.21-.56.57-.19-.22Zm-.69-.78.19.22-.56.56-.19-.21Zm-.68-.78.19.22-.56.56-.19-.21Zm-.68-.78.19.21-.57.57-.19-.22Zm-.68-.78.18.22-.56.56-.19-.21Zm-.69-.78.19.22-.56.56-.19-.21Zm-.68-.78.19.22-.57.56-.18-.21Zm-.68-.78.19.22-.57.56-.19-.21Zm-.68-.78.18.22-.56.56-.19-.21Zm-.69-.77.19.21-.56.56-.19-.21Zm-.68-.78.19.21-.57.57-.18-.22Zm-.68-.79.19.22-.57.57-.19-.22Zm-.69-.77.19.21-.56.56-.19-.21Zm-.68-.78.19.21-.56.57-.19-.22Zm-.68-.78.19.21-.57.57-.18-.22Zm-.68-.78.18.21-.56.57-.19-.22Zm-.69-.78.19.21-.56.57-.19-.22Zm-.68-.78.19.21-.56.57-.19-.22Zm-1.78-.74.06-.46.36-.36.18.22Zm-.2,1.66.06-.46,1.24-1.24.19.21-.57.57-.18-.2,0,.43Zm-.19,1.66.05-.46.69-.69,0,.46Zm-.2,1.66.05-.46.69-.69-.05.46Zm-.2,1.66.06-.46.69-.69-.06.46Zm-.19,1.66,0-.46.69-.68-.06.45Zm-.2,1.66.05-.45.69-.69-.05.45Zm-.2,1.66,0-.46.69-.68,0,.45Zm-.2,1.66.06-.46.69-.69-.06.46Zm-.19,1.66.05-.45.69-.69-.06.45Zm-.2,1.66.05-.45.69-.69-.05.45Zm-.2,1.66.06-.45.68-.69,0,.45Zm-10.28.06-.09-.32.72-.72.36,0Zm.38,1.08-.1,0-.06-.22L164,95l.36,0Zm1.31.15-.36,0,1.91-1.92.36,0Zm1.31.16-.36,0,1.91-1.92.36,0Zm1.3.15-.36,0,1.91-1.91.36,0Zm1.31.16-.36,0,1.91-1.92.36,0Zm1.3.15-.36,0,1.92-1.91.36,0Zm1.31.16-.36,0L171.85,96l.36,0Zm1.3.16-.36,0,1.67-1.66-.06.46Zm1.09.12h-.14l.16-.16Zm38.26-3-.11-.29v0c.05.09.1.18.14.27Zm.44,1-.13-.27.12-.12.15.25Zm.48,1-.12-.21,0-.06.21-.21.17.24Zm.52.94-.14-.26.3-.3c.06.07.11.15.17.23Zm.57.89-.16-.24.39-.39.18.22Zm.59.87-.17-.23.48-.48.19.21Zm.63.83-.17-.23.56-.56c.07.07.13.14.2.2Zm.68.79-.19-.22.64-.64.21.19Zm.71.75-.2-.2.72-.72.22.18Zm.73.73-.08-.08-.12-.12.8-.8.23.17Zm.78.68-.21-.19.87-.87.24.16Zm.82.65-.23-.18,1-.95.25.15Zm.84.62-.22-.15,0,0,1-1,.26.15Zm.88.58-.24-.16,1.11-1.12.28.13Zm.93.53-.26-.14,1.2-1.21.28.12Zm1,.5-.28-.13,1.31-1.3.29.11Zm1,.46-.1,0-.18-.09,1.4-1.4.3.1Zm1.05.41-.29-.11,1.5-1.5.32.08Zm1.1.36-.3-.09,1.61-1.62.34.06Zm1.16.31-.33-.07,1.75-1.76.36,0Zm1.21.25-.33,0h0l1.9-1.91.39,0Zm1.27.19h-.09l-.27,0,2.07-2.07h.42Zm1.36.1-.37,0,2.26-2.27.45,0Zm1.46,0h-.41l2.52-2.52.49-.09Zm1.57-.12-.44,0,2.84-2.84.55-.15Zm1.72-.26-.48.08,3.29-3.3.66-.25Zm2-.49L236,108l-.22.06,4.06-4.07.42-.23.47-.26Zm13-10.53-.43.81,0,.06-7.29,7.31-.85.5-.12.07Zm1.12-2.58-.22.62L238.65,107l-.68.27,6.82-6.82c.37-.35.72-.71,1.07-1.08Zm.62-2.09-.15.55-2.24,2.24c.16-.28.32-.57.46-.86Zm.35-1.81,0,.19-.05.3-1.36,1.36c.07-.21.15-.42.23-.64Zm.17-1.63,0,.34v.09l-.9.89c.05-.17.09-.35.14-.53Zm0-1.51v.4l-.58.58c0-.16.05-.32.07-.48Zm0-1.42,0,.29v.09l-.34.34,0-.43ZM251.52,85l0,.12,0,.23-.15.15v-.4ZM69.44,70.17a10.72,10.72,0,0,1,.7-1.1l2.34-2.34A9.53,9.53,0,0,1,73.57,66Zm-.93,2.4c0-.19.1-.37.15-.56l6.74-6.74.56-.16Zm.06,3.92,0,.25v.2l-.12.12c0-.12,0-.23-.06-.34Zm.37-1.83,0,.07-.13.48-.56.56c0-.13,0-.25,0-.38ZM70.19,72l-.24.38-.26.47,0,.09-1.41,1.42c0-.15,0-.3,0-.44Zm4.19-3.79-.32.16-.61.36,3.79-3.8.44,0Zm2.29-.83-.45.1-.09,0,2.62-2.63.38,0Zm1.71-.26-.44,0L80.07,65l.34.07Zm1.45,0-.38,0,1.81-1.82.31.1Zm1.28.18-.34-.07,1.57-1.57.28.13Zm1.17.29-.11,0-.2-.06,1.35-1.36.26.14Zm1.06.4-.29-.12,1.18-1.18.24.17Zm1,.49-.08,0-.19-.1,1-1,.21.19Zm.89.56L85,68.85l.83-.84.19.21Zm.83.63-.22-.18.66-.66.18.23Zm.75.71-.14-.14-.06-.06.49-.49.15.26Zm.68.79-.18-.23.3-.3a2.39,2.39,0,0,1,.13.28Zm.61.85-.16-.24.1-.1c0,.1.07.2.1.3Zm134.24,6c.22-.24.45-.46.69-.68Zm-2.09,3.56c.08-.22.16-.44.25-.65l5.45-5.46.66-.26Zm-.25,5.7v.13l0-.11Zm.17-1.63-.08.47h0l-.28.28c0-.12,0-.24,0-.35Zm.58-2,0,.05-.18.48,0,.09-.82.82v-.4ZM224.28,79l-.21.15-.41.34-.39.35-.38.37-.35.39-.32.4-.19.25-2.25,2.25c0-.16.05-.32.08-.48L228,74.81l.48-.08Zm3-1.57-.29.1-.35.14,3-3a2.67,2.67,0,0,1,.4,0Zm1.92-.45-.48.07,2.33-2.33.35,0Zm1.56-.1h-.41l1.93-1.93.32.09Zm1.34.12-.35,0,1.64-1.65.29.11Zm1.21.25-.11,0-.21,0,1.42-1.42.26.14Zm1.09.37-.29-.11,1.23-1.23.24.16Zm1,.46-.1-.06-.17-.08,1.05-1,.22.18Zm.92.54-.25-.16.89-.88.2.2Zm.84.61L237,79l.72-.73.18.22Zm.78.69-.19-.19h0l.55-.56a2.13,2.13,0,0,1,.16.25Zm.7.75-.18-.21.39-.39c0,.09.09.17.14.27Zm.64.83,0-.07-.13-.16.21-.21c0,.1.08.19.11.29ZM17.7,89.8l-.05,0,0,.06Zm.94.52-.26-.14-.47.47L18,91Zm18.81-5.67-.09-.31-.39.39-.49.89Zm.32,1.14-.09-.31L35.19,88l-.5.89Zm-1.11,2.58.49-.9L33.4,91.23l-.49.89Zm-1.79,3.25.5-.9-3.76,3.76-.49.9Zm-4.47,7,.26.14.64-.64.49-.89Zm-.94-.52.26.14,3.37-3.37.49-.9Zm-.94-.52.26.14,1.14-1.14-.26-.15Zm-.94-.52.26.14L29,96.06l-.26-.15Zm-.94-.52.26.14L28,95.53l-.26-.14ZM25.7,96l.26.15L27.1,95l-.26-.14Zm-.94-.52.26.15,1.14-1.15-.26-.14ZM23.82,95l.26.15L25.22,94,25,93.83Zm-.94-.52.26.14,1.14-1.14L24,93.31Zm-.94-.52.26.14,1.14-1.14-.26-.15ZM21,93.41l.26.14,1.14-1.14-.26-.15Zm-.94-.52.26.14,1.14-1.14-.26-.15Zm-.94-.53.25.15,1.15-1.15-.26-.14Zm-.86-.47.18.1,1.14-1.15-.26-.14-1.09,1.09Zm4.31,19,.56-.16,0,0-.09-.32Zm-2.05.59.56-.16,1.78-1.78-.08-.32Zm-2.05.59.56-.16,3.39-3.39-.57.16Zm-2.06.59.57-.16,3.39-3.39-.57.16Zm-2.05.6.57-.17,3.39-3.39-.57.16Zm-1.31-.15.09.32,3.13-3.14-.57.16Zm-.31-1.16.09.32,1.39-1.39-.57.16Z"/><path class="hkapdkg" d="M214.84,73.18q.28-.36.6-.72h11.72a12.75,12.75,0,0,0-2.19.72Zm-1.68,2.61c.13-.24.26-.48.4-.72h8.27q-.42.34-.81.72ZM212,78.4q.12-.36.27-.72h7.14q-.24.34-.45.72ZM211.27,81c.06-.24.11-.48.17-.72h6.65a7.61,7.61,0,0,0-.25.72Zm-.38,2.6c0-.24,0-.48.07-.71h6.41c0,.23-.07.47-.1.71Zm0,2.61c0-.24,0-.48,0-.72h6.37c0,.24,0,.48.05.72Zm.37,2.61c-.06-.24-.1-.48-.14-.72h6.48c.07.24.14.48.22.72Zm.78,2.61c-.09-.24-.18-.48-.26-.72h6.81c.06.12.12.24.19.36l.21.36Zm1.21,2.61-.38-.72h7.49c.22.25.45.49.68.72Zm1.67,2.6-.51-.71h9.15a14.75,14.75,0,0,0,1.5.71ZM233,103.76a18.06,18.06,0,0,1-6,0Zm6.81-2.61c-.23.14-.46.27-.71.4l-.59.32H221.15c-.44-.22-.88-.46-1.3-.72Zm3.49-2.61c-.26.25-.52.49-.8.72H217.3c-.26-.23-.51-.47-.76-.72Zm2.24-2.6c-.17.24-.34.48-.52.71H234.72A12.1,12.1,0,0,0,236,96l.18-.1ZM247,93.33q-.17.36-.36.72h-8q.36-.35.69-.72Zm1-2.61q-.11.36-.24.72h-7.05c.14-.24.27-.47.39-.72Zm.65-2.61c0,.24-.09.48-.14.72h-6.64l.13-.43.08-.29ZM249,85.5c0,.24,0,.48,0,.72h-6.45q0-.36.06-.72Zm-.09-2.6c0,.23.05.47.06.71h-6.44c0-.24,0-.48-.09-.71Zm-.49-2.61c.06.24.12.48.17.72H242q-.12-.36-.27-.72Zm-.9-2.61.29.72h-7q-.21-.37-.45-.72Zm-1.33-2.61c.11.2.23.4.34.61l.06.11h-7.82q-.37-.37-.78-.72Zm-1.83-2.61q.3.36.57.72H234.83a15.22,15.22,0,0,0-1.44-.5l-.85-.22Zm-2.67-2.61c.3.24.58.48.86.72H217.34c.29-.24.58-.48.89-.72Zm-4.55-2.6c.55.22,1.08.46,1.6.72h-17.5a15.65,15.65,0,0,1,1.49-.72ZM170.48,90.72l-.09.72h-6.31l.08-.72Zm.31-2.61-.09.72h-6.32l.09-.72Zm.31-2.61-.09.72h-6.32l.09-.72Zm.31-2.6-.09.71H165l.09-.71Zm.31-2.61-.09.72h-6.32l.09-.72Zm.31-2.61-.09.72h-6.31l.08-.72Zm.31-2.61-.09.72h-6.32l.09-.72Zm.31-2.61-.09.72h-6.32l.09-.72Zm22.78,23.48,0,.33v.07l-.36-.4Zm.31-2.61-.09.72h-2.28l-.63-.72Zm.31-2.61-.09.72h-4.88l-.62-.72Zm.31-2.61-.09.72H188.8l-.63-.72Zm.31-2.61-.09.72H186.52l-.63-.72Zm.31-2.6-.09.71H184.23l-.63-.71Zm-3.69-22.76.08-.72h6.39l-.08.72ZM193,62.75l.08-.72h6.4l-.09.72Zm-.31,2.61.08-.72h6.39l-.08.72ZM192.36,68l.08-.72h6.4l-.09.72Zm-.31,2.6.08-.72h6.4l-.09.72Zm-.31,2.61.08-.72h6.4l-.09.72Zm-.31,2.61.08-.72h6.4l-.09.72Zm-.31,2.61.09-.72h6.39l-.09.72Zm-.3,1.89.07.07v-.07h6.4l-.09.72H182l-.63-.72Zm-2.27-2.61.62.72h-9.51l-.62-.72Zm-2.28-2.61.63.72h-9.52l-.63-.72ZM184,72.46l.63.72H175.1l-.63-.72Zm-2.28-2.61.63.72H166.55l.09-.72Zm-2.27-2.6.62.72h-13.2l.09-.72Zm-2.28-2.61.63.72H167.17l.09-.72ZM174.88,62l.63.72h-8l.09-.72Zm-2.27-2.61.62.72h-5.44l.09-.72Zm-2.28-2.6.63.71H168.1l.09-.71Zm-1.88-2.16.23.27h-.26ZM153,90.72l0,.72h-6.29l0-.72Zm.14-2.61,0,.72h-6.28l0-.72Zm.14-2.61,0,.72H147l0-.72Zm.14-2.6,0,.71H147.1l0-.71Zm.14-2.61,0,.72h-6.29l0-.72Zm.14-2.61,0,.72h-6.29l0-.72Zm.15-2.61,0,.72h-6.29l0-.72Zm.13-2.61,0,.72h-6.29l0-.72Zm.15-2.61,0,.72H147.8l0-.72Zm.14-2.6,0,.72h-6.29l0-.72Zm.14-2.61,0,.72h-6.29l0-.72Zm.14-2.61,0,.72h-6.29l0-.72Zm.14-2.61,0,.72h-6.29l0-.72Zm.14-2.6,0,.71H148.5l0-.71Zm.14-2.61,0,.72h-6.29l0-.72ZM135.66,90.72v.71H110.35v-.72Zm0-2.61v.72H110.33v-.72Zm0-2.61v.72H110.31V85.5Zm-19.06-2.6v.71h-6.28V82.9Zm0-2.61V81h-6.28v-.72Zm0-2.61v.72h-6.28v-.72Zm0-2.61v.72h-6.28v-.72Zm0-2.61v.72h-6.28v-.72Zm0-2.61v.72h-6.28v-.72Zm0-2.6V68h-6.28v-.72Zm0-2.61v.72h-6.28v-.72Zm0-2.61v.72h-6.28V62Zm0-2.61v.72h-6.28v-.72Zm0-2.6v.71h-6.28v-.71Zm0-2.61v.72h-6.28v-.72ZM62.06,65.36c.15-.24.3-.48.46-.72h8.61a10.26,10.26,0,0,0-.91.72ZM60.74,68l.31-.72h7.36q-.27.36-.51.72Zm-.84,2.6c.05-.24.12-.48.19-.72h6.74q-.17.36-.3.72Zm-.43,2.61c0-.24.05-.48.08-.72H66q-.08.36-.12.72Zm0,2.61c0-.24,0-.48,0-.72h6.35q0,.36,0,.72Zm.28,2.61c0-.24-.08-.48-.11-.72H66c0,.24.1.48.16.72ZM60.32,81l-.21-.72h6.72c.11.24.22.48.35.72Zm1,2.6c-.12-.23-.23-.47-.34-.71h7.36c.19.24.39.48.61.71ZM63,86.22c-.17-.23-.34-.47-.5-.72h8.66a10.93,10.93,0,0,0,1.15.72Zm21,7.11a20,20,0,0,1-3.64.7l-.13,0h-4a18.58,18.58,0,0,1-3.5-.72Zm5.35-2.61q-.52.38-1.08.72H68.68q-.56-.34-1.08-.72Zm2.92-2.61q-.34.38-.69.72H65.29c-.25-.24-.49-.47-.73-.72Zm2.08-2.61-.52.72H84.58a9.77,9.77,0,0,0,1.13-.72Zm1.49-2.6c-.11.24-.23.48-.35.71H87.81c.14-.15.28-.31.41-.48l.19-.23Zm1-2.61c-.07.24-.14.48-.22.72h-7q.2-.36.36-.72Zm.53-2.61c0,.24-.06.48-.1.72H90.67c.06-.24.12-.48.17-.72Zm.15-2.61v.72H91.07c0-.24,0-.48,0-.72Zm-.19-2.61c0,.22.06.45.08.67v.05H90.93q0-.36-.12-.72Zm-.52-2.61c.06.24.13.48.18.72H90.28c-.09-.24-.18-.48-.29-.72Zm-.93-2.6c.1.24.21.48.3.72H88.93a7.4,7.4,0,0,0-.53-.72Zm-1.44-2.61c.15.24.31.48.45.72H86.55l-.15-.13c-.26-.21-.52-.4-.78-.59ZM92.3,62q.35.36.66.72H81.64a12.5,12.5,0,0,0-4.51-.33,14.05,14.05,0,0,0-1.89.33H63.94l.62-.72Zm-3-2.61c.32.23.63.47.94.72H66.53l.93-.72Zm-5.16-2.6a18.74,18.74,0,0,1,1.89.71H70.8a18.94,18.94,0,0,1,2-.71ZM29.42,93.33l-.06.11-.19-.11Zm1.43-2.61-.39.72h-4.7l-1.29-.72Zm1.44-2.61-.4.72H21.06l-1.3-.72Zm1.43-2.61-.4.72h-17l-1.3-.72ZM48,98.54l-2.5.72H44.22L44,98.54Zm2-2.6.21.71H43.47l-.21-.71Zm-.75-2.61.21.72H42.72l-.2-.72Zm-.75-2.61.21.72H42l-.2-.72Zm-.74-2.61.2.72H41.22l-.2-.72ZM47,85.5l.2.72H40.47l-.2-.72Zm-.75-2.6.2.71H39.72l-.2-.71Zm-.75-2.61.21.72H39l-.21-.72Zm-.75-2.61.2.72H38.23L38,77.68ZM39.08,62.75l.4-.72h.72l.21.72Zm-1.44,2.61.4-.72H41l.21.72ZM36.2,68l.39-.72H41.7l.21.72Zm-1.45,2.6.4-.72h7.3l.21.72Zm-1.44,2.61.4-.72H43.2l.21.72Zm-1.44,2.61.39-.72H44l.2.72ZM30.42,78.4l.4-.72H38l-.4.72ZM29,81l.4-.72h7.21l-.4.72Zm-1.44,2.6.4-.71h7.21l-.39.71ZM3.78,73.18l-.21-.72H4.71l1.3.72Zm.75,2.61-.21-.72H9.41l1.3.72Zm.75,2.61-.21-.72h9l1.29.72ZM6,81l-.21-.72h13l1.29.72Zm.75,2.6-.21-.71h17l1.29.71Zm13.06,22.76.08.25-1.62.46H13.52l-.2-.71Zm-.74-2.61.2.72H12.77l-.2-.72Zm-.75-2.61.2.72H12l-.2-.72Zm-.75-2.61.2.72H11.27l-.2-.72Zm-.75-2.6.2.71H10.52l-.2-.71Zm-.75-2.61.2.72H9.77l-.2-.72Zm-.75-2.61.21.72H9l-.21-.72Zm-.75-2.61.21.72H8.28l-.21-.72Zm-.75-2.61.21.72H7.53l-.21-.72Zm206.71,4.58a10.63,10.63,0,1,0,4.17-14.49A10.73,10.73,0,0,0,220.56,90.08ZM71.7,83.36a10.63,10.63,0,1,0-1.53-15A10.62,10.62,0,0,0,71.7,83.36Zm164-18.77c17.69,5.1,21.15,29.54,4.35,38.76s-35.53-6.57-30.44-24.29A21.06,21.06,0,0,1,235.73,64.59ZM189.39,75.5l2.39-20.14,10.4,1.24-5.3,44.59L174.37,75.48,172,95.56l-10.33-1.23L167,49.81ZM146.76,51.58l10.38.56-2.27,42.2-10.38-.56ZM118.62,83.14l19-.14.09,10.48-29.44.23L108,51.45l10.4-.08ZM76.28,54.05A21.13,21.13,0,1,1,57.46,77.21,21.16,21.16,0,0,1,76.28,54.05ZM17,88.93,22.47,108l-10,2.88L0,67.49,26.09,82,40.56,55.81,53,99.23,42.9,102.15,37.42,83.06,30.17,96.24Z"/><path class="thj575m" d="M118.08,2.32a.15.15,0,1,1,.21.21l-.1.11a.16.16,0,0,1-.22,0,.18.18,0,0,1,0-.22Zm1.35.79a.17.17,0,0,1,.22,0,.15.15,0,0,1,0,.21l-.2.2a.14.14,0,0,1-.21,0,.14.14,0,0,1,0-.21Zm27.2-.9,0,0-.44.44A3.64,3.64,0,0,0,146.63,2.21Zm.21-.29,0,0V2s0,0,0,0Zm-1-.95.77.77.14-.14,0,0A2.52,2.52,0,0,0,145.81,1Zm4.24,30,0,0v0Zm3.79-10.25-.6.6.39.39q.1-.43.18-.87Zm.65-5-.17.18.14.14Zm.1-2.25-.27.27.26.27C154.58,13.87,154.59,13.69,154.59,13.51Zm0-2.13-.25.25.27.28C154.58,11.73,154.58,11.55,154.57,11.38Zm-.15-2-.1.1.12.13C154.43,9.53,154.43,9.46,154.42,9.38Zm-.32-1.83-.86.86.86.86.13-.13a.14.14,0,0,1,.15,0A15.14,15.14,0,0,0,154.1,7.55ZM154,7.27h0ZM153.54,6h0l-.29.29.69.69,0-.08A7.19,7.19,0,0,0,153.54,6Zm-.91-1.24h0l-.45.46L153,6l.29-.29a.12.12,0,0,1,.08,0,4.43,4.43,0,0,0-.7-.93Zm-1.35-.8-.19.19L152,5l.45-.45a3.68,3.68,0,0,0-1.11-.6Zm-.5-.13.1.1.07-.06ZM121.71,42.13l-.69.69.45.45Q121.61,42.76,121.71,42.13Zm.46-2.62-.08.09.06,0Zm.65-2.79-.73.72.45.45C122.63,37.49,122.72,37.1,122.82,36.72Zm.76-2.92-.41.42.23.23Zm.71-2.34-.26-.25-.86.86.71.71C124,32.33,124.15,31.9,124.29,31.46Zm.25-.77-.3.3.15.15Zm.86-2.41-.3-.3-.86.86.7.7C125.09,29.11,125.24,28.69,125.4,28.28Zm.4-1-.48.48.2.21Zm.88-2-.5-.51-.86.87.83.83C126.32,26.05,126.5,25.65,126.68,25.26Zm.7-1.45-.13-.13-.86.86.43.43C127,24.58,127.19,24.19,127.38,23.81Zm.29-.55-.21.2.07.07ZM128.92,21l-.6-.59-.86.86.82.82Zm.83-1.31-.35-.35-.86.86.54.54.66-1.05Zm.86-1.29-.14-.14-.86.86.31.31C130.14,19.12,130.38,18.78,130.61,18.44Zm.75-1-.67.68.1.1ZM111.45,41.65l-.12.12-.06,0a.09.09,0,0,0,.11,0ZM111.9,39l-.55.56.44.43C111.82,39.74,111.86,39.41,111.9,39Zm.25-2.4-.8.8.65.66.07-.67v0Zm.56-4.86-.28.29.22.22Zm.37-2.51-.65.65.48.48C113,30,113,29.64,113.08,29.27Zm.48-2.64-.06.06,0,0Zm.69-2.84-.75.75.44.44C114,24.56,114.15,24.17,114.25,23.79Zm1-3.15-.67.67.32.33Zm8-12.18.17-.18A4.59,4.59,0,0,0,124,7.6l-.8.81Zm-8,5.34-.86-.86-.85.84.86.86Zm1.07,1.07-.86-.86-.84.85.85.86ZM115.21,16l-.86-.86-.85.85.86.86ZM116.28,17l-.86-.87-.84.85.85.86Zm.26.26,0-.05-.85.85.42.41.05-.14C116.29,18,116.43,17.6,116.54,17.29Zm-1.33.81-.86-.86-.85.85.86.86Zm.72.73-.51-.51-.84.84.85.86.07-.06,0-.15C115.69,19.46,115.82,19.13,115.93,18.83Zm-1.8.35-.86-.86-.84.84.86.86Zm1.08,1.07-.86-.86-.85.85.86.86Zm-2.15,0-.86-.86-.85.85.86.86Zm1.07,1.08-.86-.86-.84.84.86.86Zm.66.66-.44-.45-.85.85.86.86.06-.06,0-.14C114.57,22.68,114.68,22.33,114.79,22Zm-.66,1.49-.86-.86-.84.84.86.86Zm-1.07,1.07-.86-.86-.84.84h0l.86.86Zm.79.8-.58-.58-.84.84.86.86.39-.39C113.73,25.83,113.79,25.59,113.85,25.35Zm-.79,1.36-.86-.87-.85.85.86.86Zm.4.4-.19-.19-.84.84.77.78c.06-.38.13-.76.2-1.12Zm-1.48.67-.86-.86-.84.84.86.86Zm1.08,1.07L112.2,28l-.85.85.86.86ZM97.78,13.26a.16.16,0,0,1,.17,0L110.64,26a.12.12,0,0,1,.07.05l.43.42.84-.84L97.9,11.53C97.85,12.08,97.8,12.66,97.78,13.26ZM98,16l-.24-.24v.08c0,.13,0,.25,0,.38Zm12.89,12.9-.86-.86-.84.85.85.86ZM112,29.93l-.86-.86-.84.85.86.86Zm.87.87-.65-.66-.85.85.86.86.57-.57C112.8,31.12,112.83,31,112.85,30.8Zm-14.59-15L109.79,27.3l.07,0,.2.21.85-.84L97.77,13.55q0,.88,0,1.83a.14.14,0,0,1,.17,0l.28.28ZM98,18.1,98,18v.13Zm1.08,1.08-.87-.86-.08.08a.13.13,0,0,1-.15,0q.09.81.24,1.59Zm1.1,1.1-.89-.89-.85.85h0l.86.86.77-.77A.16.16,0,0,1,100.2,20.28Zm9.64,9.65-.86-.86-.85.85.86.86ZM110.91,31l-.86-.87-.84.85.85.86ZM112,32.08l-.86-.86-.84.85.86.86Zm.62.61-.4-.4-.85.85.86.86.26-.26C112.51,33.4,112.55,33.05,112.6,32.69Zm-12.54-13,8.81,8.82.06,0,.06.05.85-.84L98.23,16.16l-.26.27a.17.17,0,0,1-.15,0c0,.4.05.81.09,1.22a.17.17,0,0,1,.18,0l.16.16.53-.53a.16.16,0,0,1,.22,0,.15.15,0,0,1,0,.21l-.54.54.86.86.13-.13a.15.15,0,1,1,.21.21l-.12.13.48.49S100.06,19.69,100.06,19.71Zm-1,1.62-.76-.76.09.39c.06.28.12.56.19.84Zm2.14,2.15-.86-.86-.84.84.86.86ZM108.76,31l-.86-.87-.84.85.86.86Zm1.08,1.07-.86-.86-.85.85.86.86Zm1.07,1.08-.86-.86-.84.84.85.86ZM112,34.23l-.86-.86-.84.85.86.86Zm.39.39-.17-.17-.85.84.86.86C112.26,35.66,112.31,35.15,112.37,34.62Zm-10.9-11.34,6.43,6.43h0l.86-.86-8.41-8.42a.15.15,0,0,1,0,.11l-.77.77.86.86.31-.3a.15.15,0,0,1,.21.21l-.31.31.82.82A.1.1,0,0,1,101.47,23.28Zm-1.3,1.27-.86-.86a.15.15,0,0,1-.11,0c.15.45.31.88.48,1.31h0Zm1.07,1.08-.86-.86-.48.48a.16.16,0,0,1-.12.05c.08.2.16.4.25.6s.19.44.29.66h0Zm1.08,1.08-.86-.87-.85.85.86.86Zm1.07,1.07-.86-.86-.84.84.86.86Zm1.08,1.07-.86-.86-.85.85.86.86ZM105.6,30l-.92-.92-.85.85.86.86.75-.75A.17.17,0,0,1,105.6,30Zm1,1-.91-.93a.18.18,0,0,1,0,.16l-.75.75.86.86Zm1.08,1.07-.86-.86-.85.85.86.86Zm1.07,1.08-.86-.86-.84.84.86.86Zm1.08,1.07-.86-.86-.85.85.86.86Zm1.07,1.08-.86-.86-.84.84.85.86ZM112,36.38l-.86-.86-.84.85.86.86ZM105.07,29l1.68,1.68s0,0,.06,0l0,0,.85-.85-6.23-6.24-.85.85.86.86.49-.49a.16.16,0,0,1,.22,0,.14.14,0,0,1,0,.21l-.49.49.86.86.55-.55a.16.16,0,0,1,.22,0,.17.17,0,0,1,0,.21l-.56.56.86.86.28-.27a.15.15,0,0,1,.21.21l-.28.27.87.87a.15.15,0,0,1,.2.2L105,29A.16.16,0,0,1,105.07,29ZM99,23.09a.14.14,0,0,1,.15,0,.1.1,0,0,1,.07,0l.11.11.85-.85-.86-.86-.48.48a.15.15,0,0,1-.13.05C98.79,22.41,98.89,22.75,99,23.09Zm2.25,4.69-.67-.68c.15.31.29.62.44.91l0,0Zm1.08,1.07-.86-.86-.22.22a.13.13,0,0,1-.1,0c.21.41.42.79.62,1.16l0,0Zm1.07,1.08-.86-.86-.53.53a.16.16,0,0,1-.1,0l.15.27c.17.3.34.58.51.85l0,0Zm2.15,2.15-.86-.86-.85.85.86.86Zm1.07,1.08-.86-.87-.84.85.86.86Zm1.08,1.07-.86-.86-.85.85.86.86Zm1.07,1.08-.86-.86-.84.84.86.86Zm1.08,1.07-.86-.86-.85.85.86.86Zm1.07,1.08-.86-.86-.84.84.85.86Zm1,1-.84-.84-.84.85.86.86.81-.82Zm.59.21a.13.13,0,0,1,0,.06c-.2,1.87-.35,2.9-.67,3.34s-.63.43-1.11.11a8.19,8.19,0,0,1-1.29-1.3c-.52-.62-1.19-1.44-1.9-2.34l-2.13-2.72c-.68-.88-1.31-1.7-2-2.61a35.29,35.29,0,0,1-2-3,36.78,36.78,0,0,1-2.06-4.08,28.73,28.73,0,0,1-1.64-5.05,31.11,31.11,0,0,1-.65-5.27,29.77,29.77,0,0,1,.24-5.32.3.3,0,1,1,.59.08c0,.22-.05.45-.08.68a.14.14,0,0,1,.16,0l13,13.05a0,0,0,0,1,0,0l.83-.84L98.17,9.64a.15.15,0,0,1,.21-.21L111.5,22.57a.1.1,0,0,1,.07,0l.64.64.85-.85-.86-.86-.66.67a.18.18,0,0,1-.22,0,.16.16,0,0,1,0-.22l.66-.66L98.61,7.94a.16.16,0,0,1,0-.22.14.14,0,0,1,.21,0L111.12,20l.86-.86L99.22,6.4a.16.16,0,0,1,0-.22.18.18,0,0,1,.22,0l12.27,12.3a.15.15,0,0,1,.07,0l.43.44.85-.85-13-13a.16.16,0,0,1,.22-.22L112.42,17l.07,0,.8.8.84-.84-.86-.87-.5.51a.17.17,0,0,1-.21,0,.16.16,0,0,1,0-.22l.5-.5L101.24,4.11a.15.15,0,1,1,.21-.21L113,15.5l.07,0,.18.18.84-.85-.91-.91-.07,0a.16.16,0,0,1,0-.07L103.7,4.43a.14.14,0,0,1,0-.21.16.16,0,0,1,.22,0l9.35,9.36.86-.86-.86-.86-.21.21a.15.15,0,0,1-.21-.21l.21-.21-.86-.86-.06.06a.14.14,0,0,1-.21,0,.16.16,0,0,1,0-.22l0-.06-.19-.19a.25.25,0,0,1,0-.07l-.61-.61-.16.16a.16.16,0,0,1-.22-.22l.16-.16,0,0a.14.14,0,0,1,0-.21.16.16,0,0,1,.22,0l.09.09.06,0,0,.06.93.93a.14.14,0,0,1,.18,0,.15.15,0,0,1,0,.19l.87.86,0,0a.17.17,0,0,1,.21,0,.16.16,0,0,1,0,.22l0,0,.86.86.08-.07a.15.15,0,0,1,.21.21l-.07.08.85.86.1-.09a.15.15,0,0,1,.21.21l-.09.09.86.86,0,0a.16.16,0,0,1,.22.22l0,0,.52.51a.16.16,0,1,1-.22.22l0,0-.07,0-.44-.43-.84.85.86.86.26-.27,0-.17a.31.31,0,0,1,.35-.26.26.26,0,0,1,.17.09h0a.29.29,0,0,1,.06.22,10.28,10.28,0,0,1-.71,2.14c-.17.42-.36.89-.57,1.45-.33.87-.71,1.94-1.08,3.19s-.73,2.69-1,4.31-.58,3.43-.79,5.16l0,.23v0c-.08.65-.16,1.29-.22,1.89,0,0,0,0,0,.05-.07.67-.14,1.3-.2,1.89a.13.13,0,0,1,0,.06l-.06.61v.05Q112.61,38.15,112.55,38.72Zm-8.08-5.56-.87-.87h0l.42.61.32.44,0-.05Zm1.07,1.07-.86-.86-.15.15a.13.13,0,0,1-.09,0l.77,1,0,0Zm1.07,1.08-.86-.86-.29.29a.12.12,0,0,1-.09,0c.18.24.37.47.55.72l.23.29,0,0Zm1.08,1.07-.86-.86-.43.43a.2.2,0,0,1-.09,0l.78,1a.1.1,0,0,1,0,0Zm1.07,1.08-.86-.86-.56.56a.15.15,0,0,1-.09,0c.28.36.54.7.79,1a.09.09,0,0,1,0-.05Zm1.08,1.07-.86-.86-.69.69a.2.2,0,0,1-.09,0l.79,1,0-.06Zm-6.93-7.2a.14.14,0,0,1,.18,0l.15.14.06.05.32.31.85-.84-.86-.87-.81.82a.18.18,0,0,1-.1,0Zm7.35,9.36.86.86.51-.51c0-.17.07-.38.1-.61l-.61-.61Zm-.33-.15.08,0,.9-.9-.86-.86-.81.81a.12.12,0,0,1-.08,0c.27.34.53.66.77.93ZM122.72,6.27l-.86-.86-.84.85.86.86Zm1.08,1.08-.86-.87-.85.85.86.86ZM121,4.58a.21.21,0,0,1,0-.06l-.2-.2-.86.86.86.86.85-.84Zm1.68,3.84-.86-.86-.84.85.86.86Zm.28.28-.06-.06-.85.84.13.13a3.15,3.15,0,0,0,.24-.3C122.65,9.09,122.83,8.88,123,8.7Zm-1.35.8-.86-.86-.8.8s0,0,0,0l.86.87Zm.37.37-.16-.16-.84.85.27.27.3-.39C121.73,10.24,121.88,10.05,122,9.87Zm-1.44.7-.88-.87a.11.11,0,0,1,0,.06l-.8.8.86.86Zm.51.52-.3-.3-.85.84.39.39C120.57,11.74,120.83,11.42,121.09,11.09Zm-1.59.56-.86-.86-.84.84.86.87Zm.6.6-.38-.39-.85.85.13.12.06,0a1,1,0,0,0,.74-.31A4,4,0,0,0,120.1,12.25ZM145.56,1.18a.15.15,0,0,1,0-.07l0,0-.86.86.86.87.86-.87-.41-.4-.06,0ZM145.28,3l-.86-.86-.85.85.8.8a5.6,5.6,0,0,1,.49-.36Zm-1.16,1-.77-.78-.85.85.74.74.86-.79Zm-1.11,1-.74-.73-.84.84.7.71Zm-1.12,1-.69-.7-.85.85.67.67Zm-1.11,1-.07,0-.59-.6-.84.85.64.65.88-.84Zm-1.21.94-.06,0-.46-.46-.85.85.63.63.88-.85Zm-1.18,1-.07,0L138,8.64l-.85.84.63.63.86-.86Zm-1.17,1-.07,0-.25-.25-.84.85.64.64c.27-.29.56-.58.84-.87Zm-1.14,1L136,11l-.18-.18-.85.84.67.67.83-.88Zm-1.11,1-.07,0-.15-.15-.84.85.71.72.82-.9Zm-1.08,1.07-.07,0-.14-.14-.85.84.79.8.8-.93Zm-4,4.58a.09.09,0,0,1-.07,0l-.43-.43-.84.85.86.86.86-.86ZM129,18.94s0,0-.06,0l-.59-.58-.85.84.86.86.86-.86Zm-.86,1.28a.1.1,0,0,1-.07,0l-.79-.79-.85.85.86.86.86-.86ZM127,21.33l-.86-.86-.84.84.86.86Zm.26.22h0l-.85.85.86.86.86-.86ZM126,22.4l-.86-.86-.85.85.86.86Zm.56.54-.07,0-.28-.28-.84.84.86.86.85-.86Zm-.72,1.43s0,0-.06,0l-.64-.65-.85.85.86.86.86-.86Zm-.65,1.5a.05.05,0,0,1,0,0l-.85.85.86.86.86-.86Zm-.58,1.56a.1.1,0,0,1-.07,0l-.48-.47-.84.84.86.86.86-.86Zm-1.48-1.87,0,.05a.1.1,0,0,1,.07,0l.83.82.84-.84-.86-.86-.76.76A.17.17,0,0,1,123.08,25.56Zm1,3.51h0l-.85.86.86.86.73-.74.07-.18Zm-.79,3.51-.07,0-.24-.25-.85.85L123,34l.81-.8,0-.09ZM123,34.46l0,0-.85.85.86.86h0c.12-.46.23-.92.35-1.36Zm-.25,1.92s0,0,0,0l-.84-.83-.84.85.86.86Zm-.28,1.88-.59-.59-.84.85.86.86.41-.42C122.35,38.73,122.4,38.49,122.45,38.26Zm-.8,1.35-.86-.86-.84.85.86.86Zm.42.42-.21-.21-.84.85.8.8C121.89,41,122,40.55,122.07,40Zm-.42,1.73-.86-.86-.85.84.86.87Zm-1.07,1.07-.86-.86-.85.85.86.86Zm.78.79-.57-.57-.84.85.76.76a3.47,3.47,0,0,0,.25-.29A2.56,2.56,0,0,0,121.36,43.62Zm-2.93-.79-.86-.86-.85.85.86.86Zm1.07,1.08-.86-.86-.84.85.86.86Zm-.64,1.51-.22-.22-.13.13a.1.1,0,0,1-.05,0A1.75,1.75,0,0,0,118.86,45.42Zm.27-.16.08.08a.21.21,0,0,1,0,.06,2.34,2.34,0,0,0,.38-.09,2.46,2.46,0,0,0,.83-.44l-.74-.74-.85.84.22.23S119.13,45.24,119.13,45.26ZM116,42.58a.14.14,0,0,1,0-.21.15.15,0,0,1,.19,0,.13.13,0,0,1,.07,0l.22.22.84-.85-.9-.91a.18.18,0,0,1,0,.14l-.42.42a.16.16,0,0,1-.22,0,.18.18,0,0,1,0-.22l.42-.42a.18.18,0,0,1,.14,0l-.8-.8a.16.16,0,0,1,0-.22.17.17,0,0,1,.21,0l2.14,2.15a.11.11,0,0,1,.07,0l.71.72.84-.85-4.15-4.16a.15.15,0,0,1,.21-.21L119.19,41a.13.13,0,0,1,.07,0l.47.47.85-.84-5.26-5.27a.14.14,0,0,1,0-.21.16.16,0,0,1,.22,0l4.18,4.18.86-.86-5.18-5.19a.15.15,0,1,1,.21-.21l4.61,4.62.07,0,.51.51.85-.84-.86-.86-.15.15a.15.15,0,0,1-.21,0,.16.16,0,0,1,0-.22l.15-.15-5-5a.15.15,0,0,1,0-.21.16.16,0,0,1,.22,0l4.92,4.92.06,0,0,0,.84-.84-5.84-5.85a.15.15,0,0,1,0-.21.16.16,0,0,1,.22,0l5.14,5.15a.1.1,0,0,1,.07,0l.64.64.84-.85-.86-.86-.37.38a.16.16,0,0,1-.22-.22l.38-.37-5.5-5.51a.14.14,0,0,1,0-.21.16.16,0,0,1,.22,0l5.26,5.27a.13.13,0,0,1,.07,0l.18.18.84-.85-6.16-6.17a.15.15,0,0,1,0-.21.16.16,0,0,1,.22,0L122.06,31a.15.15,0,0,1,.07.05l.82.82.86-.86-.21-.21-.06,0-.6-.6-.73.73a.15.15,0,1,1-.21-.21l.72-.73L117,24.24a.14.14,0,0,1,0-.21.16.16,0,0,1,.22,0l5.19,5.2.07,0,.43.43.85-.85-.86-.86-.15.15a.14.14,0,0,1-.21,0,.16.16,0,0,1,0-.22l.14-.14-5.14-5.15a.15.15,0,0,1,0-.21.16.16,0,0,1,.22,0l5,5a.1.1,0,0,1,.07,0l.07.07.85-.84-5.62-5.64a.15.15,0,1,1,.21-.21L123,25.49a.15.15,0,0,1,0-.18l.76-.76-5-5a.17.17,0,0,1,0-.21.16.16,0,0,1,.22,0l4.42,4.42.07,0,.5.5.84-.84-.86-.86-.2.2a.16.16,0,0,1-.22,0,.15.15,0,0,1,0-.21l.21-.21-4.28-4.28a.17.17,0,0,1,0-.21.16.16,0,0,1,.22,0l4.15,4.15.06,0,.08.07.84-.84-4.59-4.6a.16.16,0,0,1,0-.22.15.15,0,0,1,.21,0l4,4,.07,0,.56.57.85-.85-4.86-4.86a.16.16,0,0,1,0-.22.14.14,0,0,1,.21,0l4,4,.06,0,.81.8.84-.84L122,14.11a.16.16,0,0,1,0-.22.14.14,0,0,1,.21,0l4.5,4.51a.1.1,0,0,1,.07,0l.51.51.85-.85-5.22-5.22a.16.16,0,0,1,0-.22.15.15,0,0,1,.21,0l4.72,4.73.07,0,.44.44.85-.84-5.32-5.34a.15.15,0,0,1,.21-.21l5.28,5.28.06,0,.17-.17a.15.15,0,1,1,.21.21l-.17.17.86.86.86-.86-.5-.5-.07,0-5.91-5.92a.14.14,0,0,1,0-.21.13.13,0,0,1,.21,0L130.67,16a.08.08,0,0,1,.06,0l.82.81.86-.86-.6-.59-.06,0-5.86-5.86a.16.16,0,0,1,0-.22.14.14,0,0,1,.21,0l5.59,5.59.06,0,.87.87.28-.28.53-.63-.6-.6s0,0-.06,0l-.16-.17-.5.49a.15.15,0,1,1-.21-.21l.49-.49L127,8.36a.16.16,0,0,1,0-.22.14.14,0,0,1,.21,0l5.28,5.29a.09.09,0,0,1,.06,0l.11.11.85-.85-5.41-5.41a.15.15,0,0,1,.21-.21l4.52,4.52a.11.11,0,0,1,.07,0l.83.84.85-.84L129.2,6.3a.15.15,0,0,1,.21-.21l4.44,4.44.07,0,.85.85.84-.85-5.23-5.24a.15.15,0,0,1,.21-.21l4.5,4.5a.13.13,0,0,1,.07,0l.68.68.85-.84-5.08-5.09a.15.15,0,1,1,.21-.21l4.55,4.55.07,0,.48.48.84-.85L132.9,3.55a.15.15,0,1,1,.21-.21l4.55,4.55s0,0,.06,0l.27.27.85-.84-4.58-4.58a.16.16,0,0,1,.22-.22l4.31,4.32.07,0,.2.21.85-.85-4.2-4.2a.14.14,0,0,1,0-.21.16.16,0,0,1,.22,0l3.73,3.73.07,0,.41.41L141,5.2l-3.72-3.73a.16.16,0,0,1,.22-.22l3.3,3.31.07,0,.36.37.85-.85L138.91,1a.16.16,0,0,1,0-.22.18.18,0,0,1,.22,0L142,3.66l.07,0,.19.19.84-.85L140.7.61a.14.14,0,0,1,0-.21.16.16,0,0,1,.22,0l2.15,2.15.06,0,.23.23.85-.85-.86-.86,0,0a.16.16,0,1,1-.22-.22l0,0-.42-.42a.14.14,0,0,1,0-.21.15.15,0,0,1,.21,0l.26.25.06,0,.12.11.47-.47a.16.16,0,0,1,.22,0,.14.14,0,0,1,0,.21l-.48.48.86.86.86-.86L145.2.79a.18.18,0,0,1,0-.1h0A.3.3,0,0,1,145,.3a.31.31,0,0,1,.39-.17c1.84.71,2.28,1.36,2,2s-.84.93-1.56,1.39a10.22,10.22,0,0,0-1.32,1c-6.37,5.85-10.88,10.38-14.26,15.55s-5.62,11-7.46,19.46c-.16.77-.28,1.45-.37,2.06a6.93,6.93,0,0,1-1,3.16,3.3,3.3,0,0,1-1.63,1.15,2.79,2.79,0,0,1-1.89-.06.3.3,0,1,1,.23-.56l.14,0a.14.14,0,0,1,0-.2l.13-.13-.86-.86-.35.34a.15.15,0,0,1-.21-.21l.34-.35-.85-.86,0,0a.16.16,0,0,1-.22,0,.18.18,0,0,1,0-.22l0,0ZM153.85,7.29l-.07,0L153,6.48l-.84.85.86.86.86-.87h0Zm.62,2.63a.15.15,0,0,1-.2,0l-.18-.19-.85.85.86.86.29-.29a.17.17,0,0,1,.17,0c0-.19,0-.38,0-.57S154.49,10.12,154.47,9.92ZM150,5.19,151.81,7l.07,0,.07.08.85-.85-.86-.86-.68.68a.16.16,0,0,1-.22,0,.14.14,0,0,1,0-.21l.68-.68-.86-.86-.81.81S150,5.18,150,5.19Zm-.32-.32.12.12a.21.21,0,0,1,0-.06l.81-.81-.26-.26,0-.06,0,0-.31,0a3.68,3.68,0,0,0-1,.39l.6.6A.25.25,0,0,1,149.68,4.87Zm4.91,7.35a.14.14,0,0,1-.17,0l-.33-.33-.85.85.86.86.32-.32a.16.16,0,0,1,.17,0C154.6,12.88,154.6,12.55,154.59,12.22Zm-.72,1.58-.86-.86-.84.84.86.86Zm.69.57a.17.17,0,0,1-.16,0l-.31-.32-.85.85.86.86.22-.22a.17.17,0,0,1,.19,0C154.53,15.1,154.55,14.73,154.56,14.37Zm-1.76.5-.86-.86-.85.85.86.86ZM153.87,16l-.86-.86-.84.85.86.86Zm.57.46a.17.17,0,0,1-.15,0l-.2-.21-.85.85.86.86a.15.15,0,0,1,.19,0C154.35,17.37,154.4,16.89,154.44,16.41ZM152.8,17l-.86-.87-.85.85.86.86Zm1.07,1.07-.86-.86-.84.85L153,19Zm.36.26a.15.15,0,0,1-.14,0h0l-.85.84.75.75C154.08,19.39,154.16,18.88,154.23,18.36Zm-1.43.82-.86-.86-.85.84L152,20Zm1.13,1.05a.14.14,0,0,1-.12,0l-.8-.8-.84.85.86.86.66-.67a.15.15,0,0,1,.21,0Zm-1.13,1.1-.86-.86-.85.84.86.86Zm.75.69a.14.14,0,0,1-.1,0l-.44-.44-.84.85.86.86a.15.15,0,0,1,.21,0h0C153.35,22.84,153.46,22.43,153.55,22ZM150,18.08l.57.56.06,0,.27.27.84-.85-.86-.86-.79.79A.2.2,0,0,1,150,18.08Zm2.82,5.4-.86-.86-.85.84.86.86Zm.3.25a.18.18,0,0,1-.09,0l-.84.85.51.51h0C152.83,24.61,153,24.17,153.1,23.73Zm-.52,1.64a.15.15,0,0,1-.08,0l-.56-.56-.85.84.87.87a.14.14,0,0,1,.17,0s0,0,0,0l.09-.22C152.35,26,152.46,25.68,152.58,25.37ZM140.79,13.18l9.63,9.64.07,0,.39.39.84-.85-.86-.86-.11.11a.15.15,0,1,1-.21-.21l.11-.11-9.45-9.47-.85.85.4.4A.1.1,0,0,1,140.79,13.18Zm10.93,13.53-.86-.87-.84.85.86.86Zm.26.22,0,0-.85.85.35.36a0,0,0,0,1,0,0C151.65,27.74,151.82,27.33,152,26.93Zm-.65,1.51-.06,0-.41-.41-.84.85.72.73,0,0Zm-.71,1.45-.05,0-.78-.78-.85.85.86.86.19-.19a.14.14,0,0,1,.21,0s0,0,0,0Zm-1,1.12-.86-.87-.85.85.86.86Zm.29.28,0,0,0,0-.85.85.26.26s0,0,0,0c.12-.18.23-.37.33-.55ZM137.43,18.42,148.2,29.2a.13.13,0,0,1,.07,0l.46.46.85-.85L138,17.24l-.85.85.26.26A.1.1,0,0,1,137.43,18.42ZM148.5,32.08l-.86-.86-.84.85.86.86Zm.57.56,0,0-.32-.32-.85.84.5.5,0,0C148.63,33.35,148.85,33,149.07,32.64ZM136.69,19.83l10.54,10.55.07,0,.36.36.84-.85L136.9,18.32l-.84.84.59.6A.1.1,0,0,1,136.69,19.83Zm-1.08,1.5-.86-.86-.84.84.86.86Zm11.82,11.83-.86-.87-.85.85.86.86Zm.8.79h0l-.56-.57-.84.85.69.69a.16.16,0,0,1,0,.07C147.77,34.64,148,34.3,148.23,34ZM136,21.33l10.14,10.14.06,0,.34.34.85-.84-11.6-11.62-.85.85.86.86h0a.15.15,0,0,1,.21.21Zm10.31,12.9-.86-.86-.84.85.86.86ZM135.4,22.84,145,32.48a.1.1,0,0,1,.07,0l.41.41.84-.85L135.83,21.54l-.85.85.38.38A.16.16,0,0,1,135.4,22.84Zm9.88,12.47-.86-.86-.85.84.86.86Zm1.33.9h0c.25-.32.5-.65.74-1l0,0-.76-.76-.85.84.85.86A.08.08,0,0,1,146.61,36.21Zm-11.88-11.9,9.14,9.15.06,0,.5.5.85-.84L134.75,22.62l-.84.84.78.78A.25.25,0,0,1,134.73,24.31Zm-1.26,1.32-.86-.86-.85.85.86.86Zm10.74,10.75-.86-.86-.85.85.86.86Zm1.07,1.08-.86-.86-.85.84.86.86Zm.37-.06h0L146,37l.44-.54,0,0-.92-.92-.84.85,1,1A.25.25,0,0,1,145.65,37.4ZM134,25.71l8.86,8.86.06,0,.47.47.85-.85L133.68,23.69l-.85.85.86.86.37-.37a.14.14,0,0,1,.21,0,.16.16,0,0,1,0,.22l-.36.36,0,0A.1.1,0,0,1,134,25.71Zm9.16,11.75-.86-.86-.84.84.86.86Zm1.08,1.07-.86-.86-.85.85.86.86Zm.44,0h0l.45-.5-.47.47S144.65,38.54,144.65,38.55Zm-11.49-11.5,4.52,4.52.07,0,.24.24.62-.62a.17.17,0,0,1,.21,0,.16.16,0,0,1,0,.22l-.62.62.86.86.28-.28a.16.16,0,0,1,.22,0,.14.14,0,0,1,0,.21l-.28.28.38.39a.1.1,0,0,1,0,.07l2.22,2.22.07,0,.3.29.84-.84-9.45-9.47-.85.85.29.29A.1.1,0,0,1,133.16,27.05Zm5.68,8.26-.86-.86-.85.84.86.86ZM141,37.46l-1.93-1.94-.85.85.86.86.5-.5a.16.16,0,0,1,.22,0,.18.18,0,0,1,0,.22l-.5.49.86.86Zm1.08,1.07-.86-.86-.85.85.86.86Zm1.07,1.08-.86-.86-.84.85.86.86Zm.48,0,0,0c.28-.29.55-.59.83-.89h0l0,0-.85.85S143.61,39.64,143.61,39.66Zm-3.86-3.87L141,37.08l.07,0,.11.11.85-.85-3-3-.85.85.86.86.42-.42a.16.16,0,0,1,.22,0,.14.14,0,0,1,0,.21l-.42.42.43.43A.25.25,0,0,1,139.75,35.79Zm-7.43-7.44,5,5,.07,0L138,34l.85-.84L138,32.3l-.46.45a.14.14,0,0,1-.21,0,.16.16,0,0,1,0-.22l.45-.45-5.15-5.16-.85.84.52.53A.21.21,0,0,1,132.32,28.35Zm6.52,9.11L138,36.6l-.85.84.86.86Zm1.07,1.07-.86-.86-.85.85.86.86ZM141,39.61l-.86-.86-.84.85.86.86Zm1.08,1.08-.86-.87-.85.85.86.86Zm.48.05,0,0,.86-.86-.07-.08-.85.85A.16.16,0,0,1,142.54,40.74Zm-11.09-11.1L136.79,35s.05,0,.06,0l.07.06.84-.85L131.53,28l-.84.85.72.73A.1.1,0,0,1,131.45,29.64Zm6.31,8.89-.86-.86-.84.85.86.86Zm1.08,1.08-.86-.86-.85.85.86.86Zm1.07,1.08-.86-.87-.85.85.86.86ZM141,41.76l-.86-.86-.84.84.86.87Zm.26.26,0-.05-.77.78Zm.19-.24,0,0h0l.49-.46.4-.38-.08-.07-.85.85A0,0,0,0,1,141.43,41.78ZM130.59,30.92,136,36.35l.07,0,.84.84.84-.85-.86-.86-.44.44a.15.15,0,0,1-.21-.21l.44-.44-6.23-6.24-.85.85.94.93A.25.25,0,0,1,130.59,30.92Zm7.17,9.77-.86-.87-.84.85.86.86Zm1.08,1.07L138,40.9l-.85.84.86.87Zm-9.06-9.5,5.56,5.57a.08.08,0,0,1,.06,0l.44.43.85-.84-6.23-6.24,0,0-.83.83.13.12A.16.16,0,0,1,129.78,32.26Zm8,10.57L136.9,42l-.84.85.86.86Zm1.38,1,0,0h0c.24-.2.49-.41.73-.63a.14.14,0,0,1-.1,0,.14.14,0,0,1,0-.21l.1-.11-.86-.86-.85.85.9.9A.16.16,0,0,1,139.14,43.79ZM129.05,33.68l6.23,6.24s0,0,.06,0l.5.5.85-.85-.86-.86-.53.52a.15.15,0,1,1-.21-.21l.52-.53-6.23-6.24-.84.85.47.48Zm7.64,10.23-.86-.86-.85.85.86.86Zm1.26.84,0,0h0l0,0,.9-.73-1-1-.85.85.79.78A.21.21,0,0,1,138,44.75Zm-9.53-9.55L135,41.75a.1.1,0,0,1,.07,0l.82.82.85-.85-.86-.86-.6.59a.15.15,0,1,1-.21-.21l.59-.59-7.3-7.32-.85.85.92.92S128.41,35.18,128.42,35.2ZM135.61,45l-.86-.86-.84.84.86.86Zm1.13.7,0,0v0c.31-.24.64-.49,1-.76l-.86-.85-.84.84.64.65A.1.1,0,0,1,136.74,45.69Zm-8.88-8.9,6.28,6.29.06,0,.57.56.84-.85-7.3-7.31-.85.85.36.36A.21.21,0,0,1,127.86,36.79Zm6.68,9.27-.86-.86-.85.85.86.86Zm1,.52,0,0,0,0c.33-.22.66-.46,1-.72l-.72-.72-.85.85.47.46A.25.25,0,0,1,135.49,46.58Zm-8.13-8.14,5.83,5.84.07,0,.43.44.85-.85-7.3-7.31-.85.84.93.93A.25.25,0,0,1,127.36,38.44Zm6.11,8.7-.86-.86-.85.84.88.89,0,0a.17.17,0,0,1,.05-.13Zm.68.25,0,0,0,0,.55-.32.52-.34-.54-.53-.84.84.2.21S134.14,47.37,134.15,47.39Zm-7.25-7.25L131.74,45l.07,0,.81.81.85-.84-6.23-6.24-.85.85.48.47A.15.15,0,0,1,126.9,40.14Zm4.42,7-.86-.86-.85.84.86.86Zm1.43,1s0,0,0,0a11.6,11.6,0,0,0,1.18-.57l-.27-.27-.76.76A.14.14,0,0,1,132.75,48.14Zm-6.24-6.25,3.62,3.63.07,0,.27.27.64-.63a.15.15,0,0,1,.21.21l-.63.64.86.86.84-.85-6.23-6.24-.84.85.86.86.17-.18a.16.16,0,0,1,.22.22l-.18.17.08.09Zm-.56,2-.86-.86-.85.85.86.86Zm2.15,2.15-1.94-1.93-.84.84.86.86.16-.17a.18.18,0,0,1,.22,0,.16.16,0,0,1,0,.22l-.17.17.86.86Zm1.07,1.08-.86-.86-.85.84.86.86ZM131,48.56l.06.06a.19.19,0,0,1,0,.1l.66-.18q.35-.1.69-.24l-.95-.95-.84.85.29.3S131,48.54,131,48.56Zm-4.79-4.8,2.17,2.18.06,0,.94.94.84-.85L126.16,42l-.84.85.87.88S126.22,43.74,126.23,43.76Zm-.28,2.3-.86-.86-.85.85.86.86ZM127,47.14l-.86-.86-.84.84.86.86Zm2.1,1.67.07.07a.18.18,0,0,1,.05.12,12.1,12.1,0,0,0,1.57-.22l-.35-.35-.45.44a.15.15,0,1,1-.21-.21l.44-.45-.86-.86-.84.85.54.54A.16.16,0,0,1,129.12,48.81Zm-2.29-.14.11.11a.14.14,0,0,1,0,.13,10.43,10.43,0,0,0,1.8.11h.11l-.58-.58-.51.51a.16.16,0,0,1-.22,0,.18.18,0,0,1,0-.22l.52-.51-.86-.86-.85.85.4.4A.1.1,0,0,1,126.83,48.67Zm-3.19-2.77a.2.2,0,0,1,0-.24.14.14,0,0,1,.21,0l.18.17.84-.84-.86-.86a.15.15,0,0,1-.2,0,.16.16,0,0,1,0-.22h0a.15.15,0,0,1,0-.18.14.14,0,0,1,.18,0l.85-.86-.57-.57a.1.1,0,0,1,0-.07.15.15,0,0,1,0-.21.17.17,0,0,1,.21,0l.62.63.85-.85-.86-.86-.32.31a.15.15,0,1,1-.21-.21l.31-.31-.07-.07,0-.07a.15.15,0,0,1,0-.21.14.14,0,0,1,.21,0l.12.12.85-.85-.59-.59a.1.1,0,0,1,0-.07.15.15,0,0,1,0-.21.16.16,0,0,1,.22,0l.64.64.84-.85-.86-.86-.25.25a.15.15,0,0,1-.21-.21l.25-.25h0a.16.16,0,0,1,0-.07.15.15,0,0,1,0-.21.16.16,0,0,1,.22,0l.06.06.84-.85-.48-.48a.21.21,0,0,1,0-.06.18.18,0,0,1,0-.22.16.16,0,0,1,.22,0l.53.53.85-.84-.9-.9a.13.13,0,0,1-.1,0,.15.15,0,0,1,0-.2.2.2,0,0,1,0-.08l.08,0,.9-.9-.3-.29a.1.1,0,0,1,0-.07.14.14,0,0,1,0-.21.13.13,0,0,1,.21,0l.35.35.85-.85-.73-.73a.21.21,0,0,1,0-.06h0a.14.14,0,0,1,0-.21.16.16,0,0,1,.22,0l.78.78.83-.83h0l-.86-.87-.47.47a.15.15,0,0,1-.21-.21l.47-.47-.06-.06a.16.16,0,0,1,0-.07h0a.15.15,0,0,1,.21-.21l.12.11.84-.85-.44-.44a.1.1,0,0,1,0-.07h0a.16.16,0,0,1,0-.22.14.14,0,0,1,.21,0l.5.5.85-.84-.81-.81a.16.16,0,0,1,0-.07h0a.14.14,0,0,1,0-.21.13.13,0,0,1,.21,0l.87.86.84-.84-.86-.87-.63.64a.16.16,0,0,1-.22-.22l.64-.63-.07-.07a.16.16,0,0,1,0-.07h0a.16.16,0,0,1,0-.22.17.17,0,0,1,.21,0l.13.13.84-.85-.37-.37a.16.16,0,0,1,0-.07h0a.16.16,0,1,1,.22-.22l.43.43.85-.84-.65-.65a.1.1,0,0,1,0-.07h0a.15.15,0,0,1,.21-.21l.71.71.85-.85-.9-.89,0-.07h0a.17.17,0,0,1,0-.21l0,0,.93-.93,0,0a.13.13,0,0,1,0-.07h0a.16.16,0,0,1,.22-.22l.11.11.84-.84-.24-.25a.21.21,0,0,1,0-.06v0a.15.15,0,0,1,.21-.21l.31.31.85-.85-.43-.43,0-.06v0a.15.15,0,0,1,.21-.21l.5.49.84-.84-.59-.6s0,0,0-.06v0a.15.15,0,0,1,.21-.21l.66.66.4-.4a.15.15,0,1,1,.21.21l-.4.4a.1.1,0,0,1,0,.07L149.05,27.9a.08.08,0,0,1,.06,0l.69.68.85-.84-.86-.86-.19.19a.16.16,0,0,1-.22,0,.15.15,0,0,1,0-.21l.19-.19L138.1,15.21l0-.06v0a.16.16,0,0,1,0-.22.17.17,0,0,1,.21,0l.8.8a.11.11,0,0,1,0,.07l10.6,10.61.07,0,0,0,.85-.84L139,14s0,0,0-.06v0a.15.15,0,0,1,.21-.21l.72.72a.16.16,0,0,1,0,.07L150.1,24.64l.06,0,.72.72.84-.85-.86-.86-.59.6a.16.16,0,0,1-.22,0,.15.15,0,0,1,0-.21l.6-.6L140.12,12.94l-.69.69a.14.14,0,0,1-.22,0,.14.14,0,0,1,0-.21l.71-.71a.17.17,0,0,1,0-.2.15.15,0,0,1,.2,0l.84-.85v0a.15.15,0,1,1,.21-.21L150.75,21a.13.13,0,0,1,.07,0l.06.06.84-.85-.86-.86,0,.05a.17.17,0,0,1-.21,0,.16.16,0,0,1,0-.22l0,0L142,10.47a.15.15,0,0,1,.21-.21l7.64,7.65a.19.19,0,0,1,0-.09l.8-.79L143,9.33a.15.15,0,1,1,.21-.21l7.13,7.14.07,0,.5.5.84-.85-.86-.86-.7.7a.15.15,0,0,1-.21-.21l.7-.71L144,8.21a.15.15,0,0,1,.21-.21l6,6.05a.1.1,0,0,1,.07,0l.56.55.84-.84-6.66-6.68a.15.15,0,0,1,.21-.21l6.25,6.26.07,0,.36.37.85-.85-6.64-6.64a.16.16,0,0,1,0-.22.14.14,0,0,1,.21,0l6,6.05a.1.1,0,0,1,.07,0l.55.54.84-.84-.86-.86-.35.35a.16.16,0,0,1-.22,0,.15.15,0,0,1,0-.21l.36-.36-5.47-5.48a.15.15,0,1,1,.21-.21l5,5,.07,0,.42.42.84-.84L153,8.64l-.57.56a.15.15,0,1,1-.21-.21l.57-.57-.87-.87a.14.14,0,0,1-.17,0,.17.17,0,0,1,0-.17l-3-3-.21.15-.28.27a.15.15,0,1,1-.21-.21v0a.12.12,0,0,1-.05,0,.29.29,0,0,1,.08-.42,5.06,5.06,0,0,1,1.81-.87,3,3,0,0,1,1.59.13,4.31,4.31,0,0,1,1.63,1,5.63,5.63,0,0,1,1.36,2.33,16.67,16.67,0,0,1,.65,3.81A41.74,41.74,0,0,1,154.41,21a34.25,34.25,0,0,1-1.62,5.58,39.86,39.86,0,0,1-2.7,5.6,41.84,41.84,0,0,1-3.63,5.25,44.87,44.87,0,0,1-4.09,4.41c-1.38,1.31-2.74,2.46-4,3.44a34,34,0,0,1-3.33,2.43A13.09,13.09,0,0,1,132,49.12a12.46,12.46,0,0,1-3.17.5,9.8,9.8,0,0,1-3-.34.32.32,0,0,1-.21-.38.3.3,0,0,1,.38-.2l.6.14-.42-.41-.19.19a.16.16,0,0,1-.22,0,.14.14,0,0,1,0-.21l.2-.2-.86-.86-.51.51a.16.16,0,0,1-.22,0,.14.14,0,0,1,0-.21l.51-.51-.86-.86-.11.11a.16.16,0,0,1-.22,0,.15.15,0,0,1,0-.21l.12-.12ZM106.15,1.81a.3.3,0,1,1,.6.07,1.19,1.19,0,0,0,.24.79,5.78,5.78,0,0,0,1.09,1.14c.58.5,1.38,1.09,2.24,1.74s1.51,1.12,2.29,1.74S114,8.46,114.68,9l.43.38L107,1.31a.16.16,0,0,1,0-.22.15.15,0,0,1,.21,0l8.18,8.19.07-.07a.17.17,0,0,1,.21,0,.16.16,0,0,1,0,.22l0,.05.86.86.69-.69a.14.14,0,0,1,.21,0,.16.16,0,0,1,0,.22l-.69.69.86.86.85-.85L108.31.44a.15.15,0,0,1,0-.21.16.16,0,0,1,.22,0l9.56,9.58a.15.15,0,0,1,.07,0l.5.5.79-.79.07,0L110.28.26a.16.16,0,0,1,0-.22.17.17,0,0,1,.21,0l9.25,9.26a.09.09,0,0,1,0-.08l.8-.8-7.7-7.7a.18.18,0,0,1,0-.22.18.18,0,0,1,.22,0l7,7,.07,0,.61.61.85-.84-.86-.87-.72.72a.13.13,0,0,1-.21,0,.14.14,0,0,1,0-.21l.72-.72-4.53-4.53a.16.16,0,0,1,0-.22.14.14,0,0,1,.21,0l.3.3a.18.18,0,0,1,0-.17l0,0a.16.16,0,0,1,.22,0,.14.14,0,0,1,0,.21l0,0a.17.17,0,0,1-.17,0L119.72,5l.87-.88a.14.14,0,0,1,0-.19.15.15,0,0,1,.21,0l0,0,.07,0a.25.25,0,0,1,0,.07l.91.92.06-.06a.15.15,0,0,1,.21.21l-.06.06L123,6l.16-.15a.15.15,0,1,1,.21.21l-.15.16.86.86.14-.14a.15.15,0,1,1,.21.21l-.06.07h.11a.31.31,0,0,1,.18.39,3.35,3.35,0,0,1-.78,1l-.26.28,0,0,0,0-.57.66c-.27.33-.57.72-.86,1.11-.48.62-1,1.26-1.41,1.73,0,0,0,0,0,0l0,0a5.59,5.59,0,0,1-.44.42,1.52,1.52,0,0,1-1.2.43,1.56,1.56,0,0,1-.84-.42c-.25-.2-.47-.41-.82-.74s-.51-.5-.89-.86c-.55-.51-1.3-1.2-2.15-1.94-.63-.56-1.33-1.14-2-1.71S110.69,6.58,110,6s-1.66-1.25-2.27-1.77A6.24,6.24,0,0,1,106.48,3,1.8,1.8,0,0,1,106.15,1.81Z"/></g></g></g></svg>