<svg xmlns="http://www.w3.org/2000/svg" viewBox="0 0 149.73 116.88"><defs><style>.cls-1{fill:#fff;}</style></defs><title>Social y google Ads</title><g id="Layer_2" data-name="Layer 2"><g id="Layer_1-2" data-name="Layer 1"><path class="cls-1" d="M122.56,58.47c-.26,20.3-13,39.12-32.42,45.78A49.11,49.11,0,0,1,36.67,89.41C23.6,73.77,22,50.83,32.52,33.43A48.86,48.86,0,0,1,83.68,10.92a49.08,49.08,0,0,1,38.88,47.55c.08,6.43,10.08,6.45,10,0a59.32,59.32,0,0,0-38.51-55C71.31-5,44.63,2.34,29.19,21c-15.7,18.94-18,46.43-5.31,67.59A59.17,59.17,0,0,0,85,115.93c27.52-5,47.2-29.87,47.56-57.46C132.64,52,122.64,52,122.56,58.47Z"/><path class="cls-1" d="M11.38,67.64a41.06,41.06,0,0,1-1.06-8c-.38-5.39-.41-10.79,1.42-15.78,1.7-4.65,5-6.95,10.73-6.36,10.26,1.07,20.08,8,28.37,13.66C71.05,65,88.81,82.43,109.9,94.9c6.79,4,14.89,8.13,23,7.39,8.32-.77,14.43-7.36,16.13-15.34,2.36-11-1.94-22.61-6.6-32.47a118.21,118.21,0,0,0-10.59-18.26c-3.7-5.2-12.38-.21-8.63,5A118.74,118.74,0,0,1,132,55.74c4.18,8.08,8.86,18.17,7.65,27.52-2.64,20.46-29.2.42-36.81-5.09C83.06,63.89,65.05,46.74,43.6,34.94c-13-7.17-33.22-13.3-40.72,4.33-4,9.44-3.27,21.17-1.14,31,1.35,6.29,11,3.63,9.64-2.66Z"/></g></g></svg>